<svg xmlns="http://www.w3.org/2000/svg" xmlns:xlink="http://www.w3.org/1999/xlink" d2Version="v0.6.0-HEAD"
	[attr.viewBox]="viewBox.join(' ')" height="100%" overflow="hidden">
	<svg id="d2-svg" class="d2-3660682979" width="3535" height="1555" viewBox="-101 -101 3535 1555">
		<rect x="-101.000000" y="-101.000000" width="3535.000000" height="1555.000000" rx="0.000000" class=" fill-N7"
			stroke-width="0" />
		<defs>
			<pattern id="dots" x="0" y="0" width="15" height="15" patternUnits="userSpaceOnUse">
				<g style="mix-blend-mode:multiply" opacity="0.1">
					<rect x="2" y="2" width="1" height="1" fill="#0A0F25" />
				</g>
				<g style="mix-blend-mode:multiply" opacity="0.1">
					<rect x="12" y="2" width="1" height="1" fill="#0A0F25" />
				</g>
				<g style="mix-blend-mode:multiply" opacity="0.1">
					<rect x="12" y="12" width="1" height="1" fill="#0A0F25" />
				</g>
				<g style="mix-blend-mode:multiply" opacity="0.1">
					<rect x="2" y="12" width="1" height="1" fill="#0A0F25" />
				</g>
				<g style="mix-blend-mode:multiply" opacity="0.1">
					<rect x="2" y="7" width="1" height="1" fill="#0A0F25" />
				</g>
				<g style="mix-blend-mode:multiply" opacity="0.1">
					<rect x="12" y="7" width="1" height="1" fill="#0A0F25" />
				</g>
				<g style="mix-blend-mode:multiply" opacity="0.1">
					<rect x="7" y="2" width="1" height="1" fill="#0A0F25" />
				</g>
				<g style="mix-blend-mode:multiply" opacity="0.1">
					<rect x="7" y="12" width="1" height="1" fill="#0A0F25" />
				</g>
				<g style="mix-blend-mode:multiply" opacity="0.1">
					<rect x="7" y="7" width="1" height="1" fill="#0A0F25" />
				</g>
			</pattern>
		</defs>
		<g id="frontend">
			<g class="shape">
				<rect x="0.000000" y="198.000000" width="3333.000000" height="955.000000" fill="#fff" class=" stroke-B2"
					style="stroke-width:2;stroke-dasharray:6.000000,5.919384;" />
				<rect x="0.000000" y="198.000000" width="3333.000000" height="955.000000" class="dots-overlay"
					style="stroke-width:2;stroke-dasharray:6.000000,5.919384;" />
				<rect x="5.000000" y="203.000000" width="3323.000000" height="945.000000" fill="transparent"
					class=" stroke-B2" style="stroke-width:2;stroke-dasharray:6.000000,5.919384;" />
			</g><text x="1666.500000" y="231.000000" class="text-mono fill-N1"
				style="text-anchor:middle;font-size:28px">FRONTEND</text>
		</g>
		<g id="startfrontend">
			<g class="shape">
				<rect x="413.000000" y="0.000000" width="209.000000" height="66.000000" class=" stroke-B1 fill-B6"
					style="stroke-width:2;" />
			</g><text x="517.500000" y="38.500000" class="text-mono-bold fill-N1"
				style="text-anchor:middle;font-size:16px">START OF FRONTEND</text>
		</g>
		<g id="endfrontend">
			<g class="shape">
				<rect x="0.000000" y="1233.000000" width="189.000000" height="66.000000" class=" stroke-B1 fill-B6"
					style="stroke-width:2;" />
			</g><text x="94.500000" y="1271.500000" class="text-mono-bold fill-N1"
				style="text-anchor:middle;font-size:16px">END OF FRONTEND</text>
		</g>
		<g id="tobecontinue">
			<g class="shape">
				<rect x="2520.000000" y="1287.000000" width="179.000000" height="66.000000" class=" stroke-B1 fill-B6"
					style="stroke-width:2;" />
			</g><text x="2609.500000" y="1325.500000" class="text-mono-bold fill-N1"
				style="text-anchor:middle;font-size:16px">TO BE CONTINUE</text>
		</g>
		<g id="frontend.internet">
			<g class="shape">
				<rect x="456.000000" y="446.000000" width="122.000000" height="120.000000" class=" stroke-B1 fill-B5"
					style="stroke-width:2;" />
			</g><text x="517.000000" y="511.500000" class="text-mono-bold fill-N1"
				style="text-anchor:middle;font-size:16px">INTERNET</text>
		</g><a href="/map?id=internet_1" xlink:href="/map?id=internet_1">
			<g id="frontend.internet_1">
				<g class="shape">
					<rect x="60.000000" y="258.000000" width="334.000000" height="66.000000" fill="orange"
						class=" stroke-B1" style="stroke-width:2;" />
				</g><text x="227.000000" y="296.500000" class="text-mono-bold fill-N1"
					style="text-anchor:middle;font-size:16px">HOW DOES THE INTERNET WORK?</text>
			</g>
		</a><a href="/map?id=internet_2" xlink:href="/map?id=internet_2">
			<g id="frontend.internet_2">
				<g class="shape">
					<rect x="60.000000" y="344.000000" width="334.000000" height="66.000000" fill="orange"
						class=" stroke-B1" style="stroke-width:2;" />
				</g><text x="227.000000" y="382.500000" class="text-mono-bold fill-N1"
					style="text-anchor:middle;font-size:16px">WHAT IS HTTP?</text>
			</g>
		</a><a href="/map?id=internet_3" xlink:href="/map?id=internet_3">
			<g id="frontend.internet_3">
				<g class="shape">
					<rect x="60.000000" y="430.000000" width="334.000000" height="66.000000" fill="orange"
						class=" stroke-B1" style="stroke-width:2;" />
				</g><text x="227.000000" y="468.500000" class="text-mono-bold fill-N1"
					style="text-anchor:middle;font-size:16px">WHAT IS DOMAIN NAME?</text>
			</g>
		</a><a href="/map?id=internet_4" xlink:href="/map?id=internet_4">
			<g id="frontend.internet_4">
				<g class="shape">
					<rect x="60.000000" y="516.000000" width="334.000000" height="66.000000" fill="orange"
						class=" stroke-B1" style="stroke-width:2;" />
				</g><text x="227.000000" y="554.500000" class="text-mono-bold fill-N1"
					style="text-anchor:middle;font-size:16px">WHAT IS HOSTING?</text>
			</g>
		</a><a href="/map?id=internet_5" xlink:href="/map?id=internet_5">
			<g id="frontend.internet_5">
				<g class="shape">
					<rect x="60.000000" y="602.000000" width="334.000000" height="66.000000" fill="orange"
						class=" stroke-B1" style="stroke-width:2;" />
				</g><text x="227.000000" y="640.500000" class="text-mono-bold fill-N1"
					style="text-anchor:middle;font-size:16px">DNS AND HOW IT WORKS?</text>
			</g>
		</a><a href="/map?id=internet_6" xlink:href="/map?id=internet_6">
			<g id="frontend.internet_6">
				<g class="shape">
					<rect x="60.000000" y="688.000000" width="334.000000" height="66.000000" fill="orange"
						class=" stroke-B1" style="stroke-width:2;" />
				</g><text x="227.000000" y="726.500000" class="text-mono-bold fill-N1"
					style="text-anchor:middle;font-size:16px">BROWSER AND HOW THEY WORK?</text>
			</g>
		</a>
		<g id="frontend.html">
			<g class="shape">
				<rect x="456.000000" y="716.000000" width="123.000000" height="123.000000" class=" stroke-B1 fill-B5"
					style="stroke-width:2;" />
			</g><text x="517.500000" y="785.500000" class="text-mono-bold fill-N1"
				style="text-anchor:middle;font-size:24px">HTML</text>
		</g><a href="/map?id=html_1" xlink:href="/map?id=html_1">
			<g id="frontend.html_1">
				<g class="shape">
					<rect x="654.000000" y="616.000000" width="278.000000" height="66.000000" fill="orange"
						class=" stroke-B1" style="stroke-width:2;" />
				</g><text x="793.000000" y="654.500000" class="text-mono-bold fill-N1"
					style="text-anchor:middle;font-size:16px">LEARN THE BASICS</text>
			</g>
		</a><a href="/map?id=html_2" xlink:href="/map?id=html_2">
			<g id="frontend.html_2">
				<g class="shape">
					<rect x="654.000000" y="702.000000" width="278.000000" height="66.000000" fill="orange"
						class=" stroke-B1" style="stroke-width:2;" />
				</g><text x="793.000000" y="740.500000" class="text-mono-bold fill-N1"
					style="text-anchor:middle;font-size:16px">WRITING SEMANTIC HTML</text>
			</g>
		</a><a href="/map?id=html_3" xlink:href="/map?id=html_3">
			<g id="frontend.html_3">
				<g class="shape">
					<rect x="654.000000" y="788.000000" width="278.000000" height="66.000000" fill="orange"
						class=" stroke-B1" style="stroke-width:2;" />
				</g><text x="793.000000" y="826.500000" class="text-mono-bold fill-N1"
					style="text-anchor:middle;font-size:16px">ACCESSIBILITY</text>
			</g>
		</a><a href="/map?id=html_4" xlink:href="/map?id=html_4">
			<g id="frontend.html_4">
				<g class="shape">
					<rect x="654.000000" y="874.000000" width="278.000000" height="66.000000" fill="orange"
						class=" stroke-B1" style="stroke-width:2;" />
				</g><text x="793.000000" y="912.500000" class="text-mono-bold fill-N1"
					style="text-anchor:middle;font-size:16px">SEO BASICS</text>
			</g>
		</a>
		<g id="frontend.css">
			<g class="shape">
				<rect x="1050.000000" y="914.000000" width="120.000000" height="120.000000" class=" stroke-B1 fill-B5"
					style="stroke-width:2;" />
			</g><text x="1110.000000" y="982.000000" class="text-mono-bold fill-N1"
				style="text-anchor:middle;font-size:24px">CSS</text>
		</g><a href="/map?id=css_1" xlink:href="/map?id=css_1">
			<g id="frontend.css_1">
				<g class="shape">
					<rect x="1248.000000" y="855.000000" width="239.000000" height="66.000000" fill="orange"
						class=" stroke-B1" style="stroke-width:2;" />
				</g><text x="1367.500000" y="893.500000" class="text-mono-bold fill-N1"
					style="text-anchor:middle;font-size:16px">LEARN THE BASICS</text>
			</g>
		</a><a href="/map?id=css_2" xlink:href="/map?id=css_2">
			<g id="frontend.css_2">
				<g class="shape">
					<rect x="1248.000000" y="941.000000" width="239.000000" height="66.000000" fill="orange"
						class=" stroke-B1" style="stroke-width:2;" />
				</g><text x="1367.500000" y="979.500000" class="text-mono-bold fill-N1"
					style="text-anchor:middle;font-size:16px">MAKING LAYOUTS</text>
			</g>
		</a><a href="/map?id=css_3" xlink:href="/map?id=css_3">
			<g id="frontend.css_3">
				<g class="shape">
					<rect x="1248.000000" y="1027.000000" width="239.000000" height="66.000000" fill="orange"
						class=" stroke-B1" style="stroke-width:2;" />
				</g><text x="1367.500000" y="1065.500000" class="text-mono-bold fill-N1"
					style="text-anchor:middle;font-size:16px">RESPONSIVE DESIGN</text>
			</g>
		</a>
		<g id="frontend.js">
			<g class="shape">
				<rect x="1941.000000" y="914.000000" width="142.000000" height="120.000000" class=" stroke-B1 fill-B5"
					style="stroke-width:2;" />
			</g><text x="2012.000000" y="979.500000" class="text-mono-bold fill-N1"
				style="text-anchor:middle;font-size:16px">JAVASCRIPT</text>
		</g><a href="/map?id=js_1" xlink:href="/map?id=js_1">
			<g id="frontend.js_1">
				<g class="shape">
					<rect x="1545.000000" y="855.000000" width="287.000000" height="66.000000" fill="orange"
						class=" stroke-B1" style="stroke-width:2;" />
				</g><text x="1688.500000" y="893.500000" class="text-mono-bold fill-N1"
					style="text-anchor:middle;font-size:16px">LEARN THE BASICS</text>
			</g>
		</a><a href="/map?id=js_2" xlink:href="/map?id=js_2">
			<g id="frontend.js_2">
				<g class="shape">
					<rect x="1545.000000" y="941.000000" width="287.000000" height="66.000000" fill="orange"
						class=" stroke-B1" style="stroke-width:2;" />
				</g><text x="1688.500000" y="979.500000" class="text-mono-bold fill-N1"
					style="text-anchor:middle;font-size:16px">LEARN DOM MANIPULATION</text>
			</g>
		</a><a href="/map?id=js_3" xlink:href="/map?id=js_3">
			<g id="frontend.js_3">
				<g class="shape">
					<rect x="1545.000000" y="1027.000000" width="287.000000" height="66.000000" fill="orange"
						class=" stroke-B1" style="stroke-width:2;" />
				</g><text x="1688.500000" y="1065.500000" class="text-mono-bold fill-N1"
					style="text-anchor:middle;font-size:16px">FETCH API/ AJAX (XHR)</text>
			</g>
		</a>
		<g id="frontend.vcshosting">
			<g class="shape">
				<rect x="1937.000000" y="446.000000" width="150.000000" height="120.000000" class=" stroke-B1 fill-B5"
					style="stroke-width:2;" />
			</g><text x="2012.000000" y="511.500000" class="text-mono-bold fill-N1"
				style="text-anchor:middle;font-size:16px">VCS HOSTING</text>
		</g><a href="/map?id=vcshosting_1" xlink:href="/map?id=vcshosting_1">
			<g id="frontend.vcshosting_1">
				<g class="shape">
					<rect x="1640.000000" y="387.000000" width="163.000000" height="66.000000" fill="orange"
						class=" stroke-B1" style="stroke-width:2;" />
				</g><text x="1721.500000" y="425.500000" class="text-mono-bold fill-N1"
					style="text-anchor:middle;font-size:16px">GITHUB</text>
			</g>
		</a><a href="/map?id=vcshosting_2" xlink:href="/map?id=vcshosting_2">
			<g id="frontend.vcshosting_2">
				<g class="shape">
					<rect x="1640.000000" y="473.000000" width="163.000000" height="66.000000" fill="orange"
						class=" stroke-B1" style="stroke-width:2;" />
				</g><text x="1721.500000" y="511.500000" class="text-mono-bold fill-N1"
					style="text-anchor:middle;font-size:16px">GITLAB</text>
			</g>
		</a><a href="/map?id=vcshosting_3" xlink:href="/map?id=vcshosting_3">
			<g id="frontend.vcshosting_3">
				<g class="shape">
					<rect x="1640.000000" y="559.000000" width="163.000000" height="66.000000" fill="orange"
						class=" stroke-B1" style="stroke-width:2;" />
				</g><text x="1721.500000" y="597.500000" class="text-mono-bold fill-N1"
					style="text-anchor:middle;font-size:16px">BITBUCKET</text>
			</g>
		</a>
		<g id="frontend.vcs">
			<g class="shape">
				<rect x="1879.000000" y="716.000000" width="266.000000" height="66.000000" class=" stroke-B1 fill-B5"
					style="stroke-width:2;" />
			</g><text x="2012.000000" y="754.500000" class="text-mono-bold fill-N1"
				style="text-anchor:middle;font-size:16px">VERSION CONTROL SYSTEMS</text>
		</g><a href="/map?id=vcs_1" xlink:href="/map?id=vcs_1">
			<g id="frontend.vcs_1">
				<g class="shape">
					<rect x="1681.000000" y="716.000000" width="107.000000" height="66.000000" fill="orange"
						class=" stroke-B1" style="stroke-width:2;" />
				</g><text x="1734.500000" y="754.500000" class="text-mono-bold fill-N1"
					style="text-anchor:middle;font-size:16px">GIT</text>
			</g>
		</a>
		<g id="frontend.package_managers">
			<g class="shape">
				<rect x="2336.000000" y="446.000000" width="197.000000" height="66.000000" class=" stroke-B1 fill-B5"
					style="stroke-width:2;" />
			</g><text x="2434.500000" y="484.500000" class="text-mono-bold fill-N1"
				style="text-anchor:middle;font-size:16px">PACKAGE MANAGERS</text>
		</g>
		<g id="frontend.pick_a_framework">
			<g class="shape">
				<rect x="2831.000000" y="545.000000" width="198.000000" height="120.000000" class=" stroke-B1 fill-B5"
					style="stroke-width:2;" />
			</g><text x="2930.000000" y="610.500000" class="text-mono-bold fill-N1"
				style="text-anchor:middle;font-size:16px">PICK A FRAMEWORK</text>
		</g><a href="/map?id=react" xlink:href="/map?id=react">
			<g id="frontend.react">
				<g class="shape">
					<rect x="3128.000000" y="357.000000" width="145.000000" height="66.000000" fill="orange"
						class=" stroke-B1" style="stroke-width:2;" />
				</g><text x="3200.500000" y="395.500000" class="text-mono-bold fill-N1"
					style="text-anchor:middle;font-size:16px">REACT</text>
			</g>
		</a><a href="/map?id=vue" xlink:href="/map?id=vue">
			<g id="frontend.vue">
				<g class="shape">
					<rect x="3128.000000" y="443.000000" width="145.000000" height="66.000000" fill="orange"
						class=" stroke-B1" style="stroke-width:2;" />
				</g><text x="3200.500000" y="481.500000" class="text-mono-bold fill-N1"
					style="text-anchor:middle;font-size:16px">VUE.JS</text>
			</g>
		</a><a href="/map?id=angular" xlink:href="/map?id=angular">
			<g id="frontend.angular">
				<g class="shape">
					<rect x="3128.000000" y="529.000000" width="145.000000" height="66.000000" fill="orange"
						class=" stroke-B1" style="stroke-width:2;" />
				</g><text x="3200.500000" y="567.500000" class="text-mono-bold fill-N1"
					style="text-anchor:middle;font-size:16px">ANGULAR</text>
			</g>
		</a><a href="/map?id=svelte" xlink:href="/map?id=svelte">
			<g id="frontend.svelte">
				<g class="shape">
					<rect x="3128.000000" y="615.000000" width="145.000000" height="66.000000" fill="orange"
						class=" stroke-B1" style="stroke-width:2;" />
				</g><text x="3200.500000" y="653.500000" class="text-mono-bold fill-N1"
					style="text-anchor:middle;font-size:16px">SVELTE</text>
			</g>
		</a><a href="/map?id=solidjs" xlink:href="/map?id=solidjs">
			<g id="frontend.solidjs">
				<g class="shape">
					<rect x="3128.000000" y="701.000000" width="145.000000" height="66.000000" fill="orange"
						class=" stroke-B1" style="stroke-width:2;" />
				</g><text x="3200.500000" y="739.500000" class="text-mono-bold fill-N1"
					style="text-anchor:middle;font-size:16px">SOLIDJS</text>
			</g>
		</a><a href="/map?id=qwik" xlink:href="/map?id=qwik">
			<g id="frontend.qwik">
				<g class="shape">
					<rect x="3128.000000" y="787.000000" width="145.000000" height="66.000000" fill="orange"
						class=" stroke-B1" style="stroke-width:2;" />
				</g><text x="3200.500000" y="825.500000" class="text-mono-bold fill-N1"
					style="text-anchor:middle;font-size:16px">QWIK</text>
			</g>
		</a>
		<g id="frontend.writing_css">
			<g class="shape">
				<rect x="2534.000000" y="644.000000" width="150.000000" height="120.000000" class=" stroke-B1 fill-B5"
					style="stroke-width:2;" />
			</g><text x="2609.000000" y="709.500000" class="text-mono-bold fill-N1"
				style="text-anchor:middle;font-size:16px">WRITING_CSS</text>
		</g><a href="/map?id=tailwind" xlink:href="/map?id=tailwind">
			<g id="frontend.tailwind">
				<g class="shape">
					<rect x="2237.000000" y="585.000000" width="163.000000" height="66.000000" fill="orange"
						class=" stroke-B1" style="stroke-width:2;" />
				</g><text x="2318.500000" y="623.500000" class="text-mono-bold fill-N1"
					style="text-anchor:middle;font-size:16px">TAILWIND</text>
			</g>
		</a><a href="/map?id=radixui" xlink:href="/map?id=radixui">
			<g id="frontend.radixui">
				<g class="shape">
					<rect x="2237.000000" y="671.000000" width="163.000000" height="66.000000" fill="orange"
						class=" stroke-B1" style="stroke-width:2;" />
				</g><text x="2318.500000" y="709.500000" class="text-mono-bold fill-N1"
					style="text-anchor:middle;font-size:16px">RADIX UI</text>
			</g>
		</a><a href="/map?id=shadonui" xlink:href="/map?id=shadonui">
			<g id="frontend.shadonui">
				<g class="shape">
					<rect x="2237.000000" y="757.000000" width="163.000000" height="66.000000" fill="orange"
						class=" stroke-B1" style="stroke-width:2;" />
				</g><text x="2318.500000" y="795.500000" class="text-mono-bold fill-N1"
					style="text-anchor:middle;font-size:16px">SHADON UI</text>
			</g>
		</a>
		<g id="frontend.(internet -- internet_1)[0]">
			<path
				d="M 454.000000 506.000000 L 425.000000 506.000000 S 425.000000 506.000000 425.000000 506.000000 L 425.000000 291.000000 S 425.000000 291.000000 425.000000 291.000000 L 396.000000 291.000000"
				fill="none" class="connection stroke-B2" style="stroke-width:2;stroke-dasharray:6.000000,5.919384;"
				mask="url(#d2-3660682979)" />
		</g>
		<g id="frontend.(internet -- internet_2)[0]">
			<path
				d="M 454.000000 506.000000 L 425.000000 506.000000 S 425.000000 506.000000 425.000000 506.000000 L 425.000000 377.000000 S 425.000000 377.000000 425.000000 377.000000 L 396.000000 377.000000"
				fill="none" class="connection stroke-B2" style="stroke-width:2;stroke-dasharray:6.000000,5.919384;"
				mask="url(#d2-3660682979)" />
		</g>
		<g id="frontend.(internet -- internet_3)[0]">
			<path
				d="M 454.000000 506.000000 L 425.000000 506.000000 S 425.000000 506.000000 425.000000 506.000000 L 425.000000 471.000000 S 425.000000 471.000000 425.000000 471.000000 L 396.000000 471.000000"
				fill="none" class="connection stroke-B2" style="stroke-width:2;stroke-dasharray:6.000000,5.919384;"
				mask="url(#d2-3660682979)" />
		</g>
		<g id="frontend.(internet -- internet_4)[0]">
			<path
				d="M 454.000000 506.000000 L 425.000000 506.000000 S 425.000000 506.000000 425.000000 506.000000 L 425.000000 541.000000 S 425.000000 541.000000 425.000000 541.000000 L 396.000000 541.000000"
				fill="none" class="connection stroke-B2" style="stroke-width:2;stroke-dasharray:6.000000,5.919384;"
				mask="url(#d2-3660682979)" />
		</g>
		<g id="frontend.(internet -- internet_5)[0]">
			<path
				d="M 454.000000 506.000000 L 425.000000 506.000000 S 425.000000 506.000000 425.000000 506.000000 L 425.000000 635.000000 S 425.000000 635.000000 425.000000 635.000000 L 396.000000 635.000000"
				fill="none" class="connection stroke-B2" style="stroke-width:2;stroke-dasharray:6.000000,5.919384;"
				mask="url(#d2-3660682979)" />
		</g>
		<g id="frontend.(internet -- internet_6)[0]">
			<path
				d="M 454.000000 506.000000 L 425.000000 506.000000 S 425.000000 506.000000 425.000000 506.000000 L 425.000000 735.000000 S 425.000000 735.000000 425.000000 735.000000 L 396.000000 735.000000"
				fill="none" class="connection stroke-B2" style="stroke-width:2;stroke-dasharray:6.000000,5.919384;"
				mask="url(#d2-3660682979)" />
		</g>
		<g id="frontend.(html -- html_1)[0]">
			<path
				d="M 581.000000 778.000000 L 616.000000 778.000000 S 616.000000 778.000000 616.000000 778.000000 L 616.000000 649.000000 S 616.000000 649.000000 616.000000 649.000000 L 652.000000 649.000000"
				fill="none" class="connection stroke-B2" style="stroke-width:2;stroke-dasharray:6.000000,5.919384;"
				mask="url(#d2-3660682979)" />
		</g>
		<g id="frontend.(html -- html_2)[0]">
			<path
				d="M 581.000000 778.000000 L 616.000000 778.000000 S 616.000000 778.000000 616.000000 778.000000 L 616.000000 742.000000 S 616.000000 742.000000 616.000000 742.000000 L 652.000000 742.000000"
				fill="none" class="connection stroke-B2" style="stroke-width:2;stroke-dasharray:6.000000,5.919384;"
				mask="url(#d2-3660682979)" />
		</g>
		<g id="frontend.(html -- html_3)[0]">
			<path
				d="M 581.000000 778.000000 L 616.000000 778.000000 S 616.000000 778.000000 616.000000 778.000000 L 616.000000 813.000000 S 616.000000 813.000000 616.000000 813.000000 L 652.000000 813.000000"
				fill="none" class="connection stroke-B2" style="stroke-width:2;stroke-dasharray:6.000000,5.919384;"
				mask="url(#d2-3660682979)" />
		</g>
		<g id="frontend.(html -- html_4)[0]">
			<path
				d="M 581.000000 778.000000 L 616.000000 778.000000 S 616.000000 778.000000 616.000000 778.000000 L 616.000000 907.000000 S 616.000000 907.000000 616.000000 907.000000 L 652.000000 907.000000"
				fill="none" class="connection stroke-B2" style="stroke-width:2;stroke-dasharray:6.000000,5.919384;"
				mask="url(#d2-3660682979)" />
		</g>
		<g id="frontend.(css -- css_1)[0]">
			<path
				d="M 1172.000000 974.000000 L 1209.000000 974.000000 S 1209.000000 974.000000 1209.000000 974.000000 L 1209.000000 884.000000 S 1209.000000 884.000000 1209.000000 884.000000 L 1246.000000 884.000000"
				fill="none" class="connection stroke-B2" style="stroke-width:2;stroke-dasharray:6.000000,5.919384;"
				mask="url(#d2-3660682979)" />
		</g>
		<g id="frontend.(css -- css_2)[0]">
			<path d="M 1172.000000 974.000000 L 1246.000000 974.000000" fill="none" class="connection stroke-B2"
				style="stroke-width:2;stroke-dasharray:6.000000,5.919384;" mask="url(#d2-3660682979)" />
		</g>
		<g id="frontend.(css -- css_3)[0]">
			<path
				d="M 1172.000000 974.000000 L 1209.000000 974.000000 S 1209.000000 974.000000 1209.000000 974.000000 L 1209.000000 1063.000000 S 1209.000000 1063.000000 1209.000000 1063.000000 L 1246.000000 1063.000000"
				fill="none" class="connection stroke-B2" style="stroke-width:2;stroke-dasharray:6.000000,5.919384;"
				mask="url(#d2-3660682979)" />
		</g>
		<g id="frontend.(js -- js_1)[0]">
			<path
				d="M 1939.000000 974.000000 L 1886.000000 974.000000 S 1886.000000 974.000000 1886.000000 974.000000 L 1886.000000 888.000000 S 1886.000000 888.000000 1886.000000 888.000000 L 1834.000000 888.000000"
				fill="none" class="connection stroke-B2" style="stroke-width:2;stroke-dasharray:6.000000,5.919384;"
				mask="url(#d2-3660682979)" />
		</g>
		<g id="frontend.(js -- js_2)[0]">
			<path d="M 1939.000000 974.000000 L 1834.000000 974.000000" fill="none" class="connection stroke-B2"
				style="stroke-width:2;stroke-dasharray:6.000000,5.919384;" mask="url(#d2-3660682979)" />
		</g>
		<g id="frontend.(js -- js_3)[0]">
			<path
				d="M 1939.000000 974.000000 L 1886.000000 974.000000 S 1886.000000 974.000000 1886.000000 974.000000 L 1886.000000 1060.000000 S 1886.000000 1060.000000 1886.000000 1060.000000 L 1834.000000 1060.000000"
				fill="none" class="connection stroke-B2" style="stroke-width:2;stroke-dasharray:6.000000,5.919384;"
				mask="url(#d2-3660682979)" />
		</g>
		<g id="frontend.(vcshosting -- vcshosting_1)[0]">
			<path
				d="M 1935.000000 506.000000 L 1870.000000 506.000000 S 1870.000000 506.000000 1870.000000 506.000000 L 1870.000000 420.000000 S 1870.000000 420.000000 1870.000000 420.000000 L 1805.000000 420.000000"
				fill="none" class="connection stroke-B2" style="stroke-width:2;stroke-dasharray:6.000000,5.919384;"
				mask="url(#d2-3660682979)" />
		</g>
		<g id="frontend.(vcshosting -- vcshosting_2)[0]">
			<path d="M 1935.000000 506.000000 L 1805.000000 506.000000" fill="none" class="connection stroke-B2"
				style="stroke-width:2;stroke-dasharray:6.000000,5.919384;" mask="url(#d2-3660682979)" />
		</g>
		<g id="frontend.(vcshosting -- vcshosting_3)[0]">
			<path
				d="M 1935.000000 506.000000 L 1870.000000 506.000000 S 1870.000000 506.000000 1870.000000 506.000000 L 1870.000000 592.000000 S 1870.000000 592.000000 1870.000000 592.000000 L 1805.000000 592.000000"
				fill="none" class="connection stroke-B2" style="stroke-width:2;stroke-dasharray:6.000000,5.919384;"
				mask="url(#d2-3660682979)" />
		</g>
		<g id="frontend.(vcs -- vcs_1)[0]">
			<path d="M 1877.000000 749.000000 L 1790.000000 749.000000" fill="none" class="connection stroke-B2"
				style="stroke-width:2;stroke-dasharray:6.000000,5.919384;" mask="url(#d2-3660682979)" />
		</g>
		<g id="frontend.(vcshosting -&gt; package_managers)[0]">
			<marker id="mk-3488378134" markerWidth="10.000000" markerHeight="12.000000" refX="7.000000" refY="6.000000"
				viewBox="0.000000 0.000000 10.000000 12.000000" orient="auto" markerUnits="userSpaceOnUse">
				<polygon points="0.000000,0.000000 10.000000,6.000000 0.000000,12.000000" class="connection fill-B1"
					stroke-width="2" />
			</marker>
			<path d="M 2089.000000 479.000000 L 2332.000000 479.000000" fill="none" class="connection stroke-B1"
				style="stroke-width:2;" marker-end="url(#mk-3488378134)" mask="url(#d2-3660682979)" />
		</g>
		<g id="frontend.(package_managers -&gt; pick_a_framework)[0]">
			<path
				d="M 2466.000000 514.000000 L 2466.000000 581.000000 S 2466.000000 581.000000 2466.000000 581.000000 L 2827.000000 581.000000"
				fill="none" class="connection stroke-B1" style="stroke-width:2;" marker-end="url(#mk-3488378134)"
				mask="url(#d2-3660682979)" />
		</g>
		<g id="frontend.(pick_a_framework -- react)[0]">
			<path
				d="M 3031.000000 605.000000 L 3078.000000 605.000000 S 3078.000000 605.000000 3078.000000 605.000000 L 3078.000000 390.000000 S 3078.000000 390.000000 3078.000000 390.000000 L 3126.000000 390.000000"
				fill="none" class="connection stroke-B2" style="stroke-width:2;stroke-dasharray:6.000000,5.919384;"
				mask="url(#d2-3660682979)" />
		</g>
		<g id="frontend.(pick_a_framework -- vue)[0]">
			<path
				d="M 3031.000000 605.000000 L 3078.000000 605.000000 S 3078.000000 605.000000 3078.000000 605.000000 L 3078.000000 476.000000 S 3078.000000 476.000000 3078.000000 476.000000 L 3126.000000 476.000000"
				fill="none" class="connection stroke-B2" style="stroke-width:2;stroke-dasharray:6.000000,5.919384;"
				mask="url(#d2-3660682979)" />
		</g>
		<g id="frontend.(pick_a_framework -- angular)[0]">
			<path
				d="M 3031.000000 605.000000 L 3078.000000 605.000000 S 3078.000000 605.000000 3078.000000 605.000000 L 3078.000000 562.000000 S 3078.000000 562.000000 3078.000000 562.000000 L 3126.000000 562.000000"
				fill="none" class="connection stroke-B2" style="stroke-width:2;stroke-dasharray:6.000000,5.919384;"
				mask="url(#d2-3660682979)" />
		</g>
		<g id="frontend.(pick_a_framework -- svelte)[0]">
			<path
				d="M 3031.000000 605.000000 L 3078.000000 605.000000 S 3078.000000 605.000000 3078.000000 605.000000 L 3078.000000 648.000000 S 3078.000000 648.000000 3078.000000 648.000000 L 3126.000000 648.000000"
				fill="none" class="connection stroke-B2" style="stroke-width:2;stroke-dasharray:6.000000,5.919384;"
				mask="url(#d2-3660682979)" />
		</g>
		<g id="frontend.(pick_a_framework -- solidjs)[0]">
			<path
				d="M 3031.000000 605.000000 L 3078.000000 605.000000 S 3078.000000 605.000000 3078.000000 605.000000 L 3078.000000 734.000000 S 3078.000000 734.000000 3078.000000 734.000000 L 3126.000000 734.000000"
				fill="none" class="connection stroke-B2" style="stroke-width:2;stroke-dasharray:6.000000,5.919384;"
				mask="url(#d2-3660682979)" />
		</g>
		<g id="frontend.(pick_a_framework -- qwik)[0]">
			<path
				d="M 3031.000000 605.000000 L 3078.000000 605.000000 S 3078.000000 605.000000 3078.000000 605.000000 L 3078.000000 820.000000 S 3078.000000 820.000000 3078.000000 820.000000 L 3126.000000 820.000000"
				fill="none" class="connection stroke-B2" style="stroke-width:2;stroke-dasharray:6.000000,5.919384;"
				mask="url(#d2-3660682979)" />
		</g>
		<g id="frontend.(pick_a_framework -&gt; writing_css)[0]">
			<path
				d="M 2829.000000 612.000000 L 2609.000000 612.000000 S 2609.000000 612.000000 2609.000000 612.000000 L 2609.000000 640.000000"
				fill="none" class="connection stroke-B1" style="stroke-width:2;" marker-end="url(#mk-3488378134)"
				mask="url(#d2-3660682979)" />
		</g>
		<g id="frontend.(writing_css -- tailwind)[0]">
			<path
				d="M 2532.000000 704.000000 L 2467.000000 704.000000 S 2467.000000 704.000000 2467.000000 704.000000 L 2467.000000 618.000000 S 2467.000000 618.000000 2467.000000 618.000000 L 2402.000000 618.000000"
				fill="none" class="connection stroke-B2" style="stroke-width:2;stroke-dasharray:6.000000,5.919384;"
				mask="url(#d2-3660682979)" />
		</g>
		<g id="frontend.(writing_css -- radixui)[0]">
			<path d="M 2532.000000 704.000000 L 2402.000000 704.000000" fill="none" class="connection stroke-B2"
				style="stroke-width:2;stroke-dasharray:6.000000,5.919384;" mask="url(#d2-3660682979)" />
		</g>
		<g id="frontend.(writing_css -- shadonui)[0]">
			<path
				d="M 2532.000000 704.000000 L 2467.000000 704.000000 S 2467.000000 704.000000 2467.000000 704.000000 L 2467.000000 790.000000 S 2467.000000 790.000000 2467.000000 790.000000 L 2402.000000 790.000000"
				fill="none" class="connection stroke-B2" style="stroke-width:2;stroke-dasharray:6.000000,5.919384;"
				mask="url(#d2-3660682979)" />
		</g>
		<g id="frontend.(internet -&gt; html)[0]">
			<path d="M 517.000000 568.000000 L 517.000000 712.000000" fill="none" class="connection stroke-B1"
				style="stroke-width:2;" marker-end="url(#mk-3488378134)" mask="url(#d2-3660682979)" />
		</g>
		<g id="frontend.(html -&gt; css)[0]">
			<path
				d="M 517.000000 841.000000 L 517.000000 987.000000 S 517.000000 987.000000 517.000000 987.000000 L 1046.000000 987.000000"
				fill="none" class="connection stroke-B1" style="stroke-width:2;" marker-end="url(#mk-3488378134)"
				mask="url(#d2-3660682979)" />
		</g>
		<g id="frontend.(css -&gt; js)[0]">
			<path
				d="M 1110.000000 1036.000000 L 1110.000000 1123.000000 S 1110.000000 1123.000000 1110.000000 1123.000000 L 2012.000000 1123.000000 S 2012.000000 1123.000000 2012.000000 1123.000000 L 2012.000000 1038.000000"
				fill="none" class="connection stroke-B1" style="stroke-width:2;" marker-end="url(#mk-3488378134)"
				mask="url(#d2-3660682979)" />
		</g>
		<g id="frontend.(js -&gt; vcs)[0]">
			<path d="M 2012.000000 912.000000 L 2012.000000 786.000000" fill="none" class="connection stroke-B1"
				style="stroke-width:2;" marker-end="url(#mk-3488378134)" mask="url(#d2-3660682979)" />
		</g>
		<g id="frontend.(vcs -&gt; vcshosting)[0]">
			<path d="M 2012.000000 714.000000 L 2012.000000 570.000000" fill="none" class="connection stroke-B1"
				style="stroke-width:2;" marker-end="url(#mk-3488378134)" mask="url(#d2-3660682979)" />
		</g>
		<g id="(startfrontend -&gt; frontend.internet)[0]">
			<path d="M 517.000000 68.000000 L 517.000000 442.000000" fill="none" class="connection stroke-B1"
				style="stroke-width:2;" marker-end="url(#mk-3488378134)" mask="url(#d2-3660682979)" />
		</g>
		<g id="(frontend.writing_css -&gt; tobecontinue)[0]">
			<path d="M 2609.000000 766.000000 L 2609.000000 1283.000000" fill="none" class="connection stroke-B1"
				style="stroke-width:2;" marker-end="url(#mk-3488378134)" mask="url(#d2-3660682979)" />
		</g>
		<g transform="translate(378 242)" class="appendix-icon"><svg width="32" height="32" viewBox="0 0 32 32"
				fill="none" xmlns="http://www.w3.org/2000/svg">
				<g clip-path="url(#clip0_3440_35088111)">
					<path
						d="M16 31.1109C24.3456 31.1109 31.1111 24.3454 31.1111 15.9998C31.1111 7.65415 24.3456 0.888672 16 0.888672C7.65436 0.888672 0.888885 7.65415 0.888885 15.9998C0.888885 24.3454 7.65436 31.1109 16 31.1109Z"
						fill="white" stroke="#DEE1EB" />
					<path
						d="M14.3909 16.7965C14.7364 17.2584 15.1772 17.6406 15.6834 17.9171C16.1896 18.1938 16.7494 18.3582 17.3248 18.3993C17.9001 18.4405 18.4777 18.3575 19.0181 18.1559C19.5586 17.9543 20.0492 17.6389 20.4571 17.2309L22.8708 14.8173C23.6036 14.0586 24.0089 13.0425 23.9998 11.9877C23.9906 10.933 23.5676 9.92404 22.8217 9.17821C22.0759 8.43237 21.067 8.00931 20.0123 8.00015C18.9575 7.99098 17.9413 8.39644 17.1827 9.1292L15.7988 10.505"
						stroke="#2E3346" stroke-width="2" stroke-linecap="round" stroke-linejoin="round" />
					<path
						d="M17.609 15.1874C17.2635 14.7255 16.8227 14.3433 16.3165 14.0667C15.8103 13.7902 15.2505 13.6257 14.6752 13.5845C14.0998 13.5433 13.5223 13.6263 12.9819 13.8279C12.4414 14.0295 11.9506 14.345 11.5428 14.753L9.1292 17.1666C8.39644 17.9252 7.99098 18.9414 8.00015 19.9962C8.00931 21.0509 8.43237 22.0598 9.17821 22.8056C9.92405 23.5515 10.933 23.9745 11.9877 23.9837C13.0425 23.9928 14.0586 23.5875 14.8173 22.8547L16.193 21.4788"
						stroke="#2E3346" stroke-width="2" stroke-linecap="round" stroke-linejoin="round" />
				</g>
				<defs>
					<clipPath id="clip0_3440_35088111">
						<rect width="32" height="32" fill="white" />
					</clipPath>
				</defs>
			</svg>
		</g>
		<g transform="translate(378 328)" class="appendix-icon"><svg width="32" height="32" viewBox="0 0 32 32"
				fill="none" xmlns="http://www.w3.org/2000/svg">
				<g clip-path="url(#clip0_3440_35088111)">
					<path
						d="M16 31.1109C24.3456 31.1109 31.1111 24.3454 31.1111 15.9998C31.1111 7.65415 24.3456 0.888672 16 0.888672C7.65436 0.888672 0.888885 7.65415 0.888885 15.9998C0.888885 24.3454 7.65436 31.1109 16 31.1109Z"
						fill="white" stroke="#DEE1EB" />
					<path
						d="M14.3909 16.7965C14.7364 17.2584 15.1772 17.6406 15.6834 17.9171C16.1896 18.1938 16.7494 18.3582 17.3248 18.3993C17.9001 18.4405 18.4777 18.3575 19.0181 18.1559C19.5586 17.9543 20.0492 17.6389 20.4571 17.2309L22.8708 14.8173C23.6036 14.0586 24.0089 13.0425 23.9998 11.9877C23.9906 10.933 23.5676 9.92404 22.8217 9.17821C22.0759 8.43237 21.067 8.00931 20.0123 8.00015C18.9575 7.99098 17.9413 8.39644 17.1827 9.1292L15.7988 10.505"
						stroke="#2E3346" stroke-width="2" stroke-linecap="round" stroke-linejoin="round" />
					<path
						d="M17.609 15.1874C17.2635 14.7255 16.8227 14.3433 16.3165 14.0667C15.8103 13.7902 15.2505 13.6257 14.6752 13.5845C14.0998 13.5433 13.5223 13.6263 12.9819 13.8279C12.4414 14.0295 11.9506 14.345 11.5428 14.753L9.1292 17.1666C8.39644 17.9252 7.99098 18.9414 8.00015 19.9962C8.00931 21.0509 8.43237 22.0598 9.17821 22.8056C9.92405 23.5515 10.933 23.9745 11.9877 23.9837C13.0425 23.9928 14.0586 23.5875 14.8173 22.8547L16.193 21.4788"
						stroke="#2E3346" stroke-width="2" stroke-linecap="round" stroke-linejoin="round" />
				</g>
				<defs>
					<clipPath id="clip0_3440_35088111">
						<rect width="32" height="32" fill="white" />
					</clipPath>
				</defs>
			</svg>
		</g>
		<g transform="translate(378 414)" class="appendix-icon"><svg width="32" height="32" viewBox="0 0 32 32"
				fill="none" xmlns="http://www.w3.org/2000/svg">
				<g clip-path="url(#clip0_3440_35088111)">
					<path
						d="M16 31.1109C24.3456 31.1109 31.1111 24.3454 31.1111 15.9998C31.1111 7.65415 24.3456 0.888672 16 0.888672C7.65436 0.888672 0.888885 7.65415 0.888885 15.9998C0.888885 24.3454 7.65436 31.1109 16 31.1109Z"
						fill="white" stroke="#DEE1EB" />
					<path
						d="M14.3909 16.7965C14.7364 17.2584 15.1772 17.6406 15.6834 17.9171C16.1896 18.1938 16.7494 18.3582 17.3248 18.3993C17.9001 18.4405 18.4777 18.3575 19.0181 18.1559C19.5586 17.9543 20.0492 17.6389 20.4571 17.2309L22.8708 14.8173C23.6036 14.0586 24.0089 13.0425 23.9998 11.9877C23.9906 10.933 23.5676 9.92404 22.8217 9.17821C22.0759 8.43237 21.067 8.00931 20.0123 8.00015C18.9575 7.99098 17.9413 8.39644 17.1827 9.1292L15.7988 10.505"
						stroke="#2E3346" stroke-width="2" stroke-linecap="round" stroke-linejoin="round" />
					<path
						d="M17.609 15.1874C17.2635 14.7255 16.8227 14.3433 16.3165 14.0667C15.8103 13.7902 15.2505 13.6257 14.6752 13.5845C14.0998 13.5433 13.5223 13.6263 12.9819 13.8279C12.4414 14.0295 11.9506 14.345 11.5428 14.753L9.1292 17.1666C8.39644 17.9252 7.99098 18.9414 8.00015 19.9962C8.00931 21.0509 8.43237 22.0598 9.17821 22.8056C9.92405 23.5515 10.933 23.9745 11.9877 23.9837C13.0425 23.9928 14.0586 23.5875 14.8173 22.8547L16.193 21.4788"
						stroke="#2E3346" stroke-width="2" stroke-linecap="round" stroke-linejoin="round" />
				</g>
				<defs>
					<clipPath id="clip0_3440_35088111">
						<rect width="32" height="32" fill="white" />
					</clipPath>
				</defs>
			</svg>
		</g>
		<g transform="translate(378 500)" class="appendix-icon"><svg width="32" height="32" viewBox="0 0 32 32"
				fill="none" xmlns="http://www.w3.org/2000/svg">
				<g clip-path="url(#clip0_3440_35088111)">
					<path
						d="M16 31.1109C24.3456 31.1109 31.1111 24.3454 31.1111 15.9998C31.1111 7.65415 24.3456 0.888672 16 0.888672C7.65436 0.888672 0.888885 7.65415 0.888885 15.9998C0.888885 24.3454 7.65436 31.1109 16 31.1109Z"
						fill="white" stroke="#DEE1EB" />
					<path
						d="M14.3909 16.7965C14.7364 17.2584 15.1772 17.6406 15.6834 17.9171C16.1896 18.1938 16.7494 18.3582 17.3248 18.3993C17.9001 18.4405 18.4777 18.3575 19.0181 18.1559C19.5586 17.9543 20.0492 17.6389 20.4571 17.2309L22.8708 14.8173C23.6036 14.0586 24.0089 13.0425 23.9998 11.9877C23.9906 10.933 23.5676 9.92404 22.8217 9.17821C22.0759 8.43237 21.067 8.00931 20.0123 8.00015C18.9575 7.99098 17.9413 8.39644 17.1827 9.1292L15.7988 10.505"
						stroke="#2E3346" stroke-width="2" stroke-linecap="round" stroke-linejoin="round" />
					<path
						d="M17.609 15.1874C17.2635 14.7255 16.8227 14.3433 16.3165 14.0667C15.8103 13.7902 15.2505 13.6257 14.6752 13.5845C14.0998 13.5433 13.5223 13.6263 12.9819 13.8279C12.4414 14.0295 11.9506 14.345 11.5428 14.753L9.1292 17.1666C8.39644 17.9252 7.99098 18.9414 8.00015 19.9962C8.00931 21.0509 8.43237 22.0598 9.17821 22.8056C9.92405 23.5515 10.933 23.9745 11.9877 23.9837C13.0425 23.9928 14.0586 23.5875 14.8173 22.8547L16.193 21.4788"
						stroke="#2E3346" stroke-width="2" stroke-linecap="round" stroke-linejoin="round" />
				</g>
				<defs>
					<clipPath id="clip0_3440_35088111">
						<rect width="32" height="32" fill="white" />
					</clipPath>
				</defs>
			</svg>
		</g>
		<g transform="translate(378 586)" class="appendix-icon"><svg width="32" height="32" viewBox="0 0 32 32"
				fill="none" xmlns="http://www.w3.org/2000/svg">
				<g clip-path="url(#clip0_3440_35088111)">
					<path
						d="M16 31.1109C24.3456 31.1109 31.1111 24.3454 31.1111 15.9998C31.1111 7.65415 24.3456 0.888672 16 0.888672C7.65436 0.888672 0.888885 7.65415 0.888885 15.9998C0.888885 24.3454 7.65436 31.1109 16 31.1109Z"
						fill="white" stroke="#DEE1EB" />
					<path
						d="M14.3909 16.7965C14.7364 17.2584 15.1772 17.6406 15.6834 17.9171C16.1896 18.1938 16.7494 18.3582 17.3248 18.3993C17.9001 18.4405 18.4777 18.3575 19.0181 18.1559C19.5586 17.9543 20.0492 17.6389 20.4571 17.2309L22.8708 14.8173C23.6036 14.0586 24.0089 13.0425 23.9998 11.9877C23.9906 10.933 23.5676 9.92404 22.8217 9.17821C22.0759 8.43237 21.067 8.00931 20.0123 8.00015C18.9575 7.99098 17.9413 8.39644 17.1827 9.1292L15.7988 10.505"
						stroke="#2E3346" stroke-width="2" stroke-linecap="round" stroke-linejoin="round" />
					<path
						d="M17.609 15.1874C17.2635 14.7255 16.8227 14.3433 16.3165 14.0667C15.8103 13.7902 15.2505 13.6257 14.6752 13.5845C14.0998 13.5433 13.5223 13.6263 12.9819 13.8279C12.4414 14.0295 11.9506 14.345 11.5428 14.753L9.1292 17.1666C8.39644 17.9252 7.99098 18.9414 8.00015 19.9962C8.00931 21.0509 8.43237 22.0598 9.17821 22.8056C9.92405 23.5515 10.933 23.9745 11.9877 23.9837C13.0425 23.9928 14.0586 23.5875 14.8173 22.8547L16.193 21.4788"
						stroke="#2E3346" stroke-width="2" stroke-linecap="round" stroke-linejoin="round" />
				</g>
				<defs>
					<clipPath id="clip0_3440_35088111">
						<rect width="32" height="32" fill="white" />
					</clipPath>
				</defs>
			</svg>
		</g>
		<g transform="translate(378 672)" class="appendix-icon"><svg width="32" height="32" viewBox="0 0 32 32"
				fill="none" xmlns="http://www.w3.org/2000/svg">
				<g clip-path="url(#clip0_3440_35088111)">
					<path
						d="M16 31.1109C24.3456 31.1109 31.1111 24.3454 31.1111 15.9998C31.1111 7.65415 24.3456 0.888672 16 0.888672C7.65436 0.888672 0.888885 7.65415 0.888885 15.9998C0.888885 24.3454 7.65436 31.1109 16 31.1109Z"
						fill="white" stroke="#DEE1EB" />
					<path
						d="M14.3909 16.7965C14.7364 17.2584 15.1772 17.6406 15.6834 17.9171C16.1896 18.1938 16.7494 18.3582 17.3248 18.3993C17.9001 18.4405 18.4777 18.3575 19.0181 18.1559C19.5586 17.9543 20.0492 17.6389 20.4571 17.2309L22.8708 14.8173C23.6036 14.0586 24.0089 13.0425 23.9998 11.9877C23.9906 10.933 23.5676 9.92404 22.8217 9.17821C22.0759 8.43237 21.067 8.00931 20.0123 8.00015C18.9575 7.99098 17.9413 8.39644 17.1827 9.1292L15.7988 10.505"
						stroke="#2E3346" stroke-width="2" stroke-linecap="round" stroke-linejoin="round" />
					<path
						d="M17.609 15.1874C17.2635 14.7255 16.8227 14.3433 16.3165 14.0667C15.8103 13.7902 15.2505 13.6257 14.6752 13.5845C14.0998 13.5433 13.5223 13.6263 12.9819 13.8279C12.4414 14.0295 11.9506 14.345 11.5428 14.753L9.1292 17.1666C8.39644 17.9252 7.99098 18.9414 8.00015 19.9962C8.00931 21.0509 8.43237 22.0598 9.17821 22.8056C9.92405 23.5515 10.933 23.9745 11.9877 23.9837C13.0425 23.9928 14.0586 23.5875 14.8173 22.8547L16.193 21.4788"
						stroke="#2E3346" stroke-width="2" stroke-linecap="round" stroke-linejoin="round" />
				</g>
				<defs>
					<clipPath id="clip0_3440_35088111">
						<rect width="32" height="32" fill="white" />
					</clipPath>
				</defs>
			</svg>
		</g>
		<g transform="translate(916 600)" class="appendix-icon"><svg width="32" height="32" viewBox="0 0 32 32"
				fill="none" xmlns="http://www.w3.org/2000/svg">
				<g clip-path="url(#clip0_3440_35088111)">
					<path
						d="M16 31.1109C24.3456 31.1109 31.1111 24.3454 31.1111 15.9998C31.1111 7.65415 24.3456 0.888672 16 0.888672C7.65436 0.888672 0.888885 7.65415 0.888885 15.9998C0.888885 24.3454 7.65436 31.1109 16 31.1109Z"
						fill="white" stroke="#DEE1EB" />
					<path
						d="M14.3909 16.7965C14.7364 17.2584 15.1772 17.6406 15.6834 17.9171C16.1896 18.1938 16.7494 18.3582 17.3248 18.3993C17.9001 18.4405 18.4777 18.3575 19.0181 18.1559C19.5586 17.9543 20.0492 17.6389 20.4571 17.2309L22.8708 14.8173C23.6036 14.0586 24.0089 13.0425 23.9998 11.9877C23.9906 10.933 23.5676 9.92404 22.8217 9.17821C22.0759 8.43237 21.067 8.00931 20.0123 8.00015C18.9575 7.99098 17.9413 8.39644 17.1827 9.1292L15.7988 10.505"
						stroke="#2E3346" stroke-width="2" stroke-linecap="round" stroke-linejoin="round" />
					<path
						d="M17.609 15.1874C17.2635 14.7255 16.8227 14.3433 16.3165 14.0667C15.8103 13.7902 15.2505 13.6257 14.6752 13.5845C14.0998 13.5433 13.5223 13.6263 12.9819 13.8279C12.4414 14.0295 11.9506 14.345 11.5428 14.753L9.1292 17.1666C8.39644 17.9252 7.99098 18.9414 8.00015 19.9962C8.00931 21.0509 8.43237 22.0598 9.17821 22.8056C9.92405 23.5515 10.933 23.9745 11.9877 23.9837C13.0425 23.9928 14.0586 23.5875 14.8173 22.8547L16.193 21.4788"
						stroke="#2E3346" stroke-width="2" stroke-linecap="round" stroke-linejoin="round" />
				</g>
				<defs>
					<clipPath id="clip0_3440_35088111">
						<rect width="32" height="32" fill="white" />
					</clipPath>
				</defs>
			</svg>
		</g>
		<g transform="translate(916 686)" class="appendix-icon"><svg width="32" height="32" viewBox="0 0 32 32"
				fill="none" xmlns="http://www.w3.org/2000/svg">
				<g clip-path="url(#clip0_3440_35088111)">
					<path
						d="M16 31.1109C24.3456 31.1109 31.1111 24.3454 31.1111 15.9998C31.1111 7.65415 24.3456 0.888672 16 0.888672C7.65436 0.888672 0.888885 7.65415 0.888885 15.9998C0.888885 24.3454 7.65436 31.1109 16 31.1109Z"
						fill="white" stroke="#DEE1EB" />
					<path
						d="M14.3909 16.7965C14.7364 17.2584 15.1772 17.6406 15.6834 17.9171C16.1896 18.1938 16.7494 18.3582 17.3248 18.3993C17.9001 18.4405 18.4777 18.3575 19.0181 18.1559C19.5586 17.9543 20.0492 17.6389 20.4571 17.2309L22.8708 14.8173C23.6036 14.0586 24.0089 13.0425 23.9998 11.9877C23.9906 10.933 23.5676 9.92404 22.8217 9.17821C22.0759 8.43237 21.067 8.00931 20.0123 8.00015C18.9575 7.99098 17.9413 8.39644 17.1827 9.1292L15.7988 10.505"
						stroke="#2E3346" stroke-width="2" stroke-linecap="round" stroke-linejoin="round" />
					<path
						d="M17.609 15.1874C17.2635 14.7255 16.8227 14.3433 16.3165 14.0667C15.8103 13.7902 15.2505 13.6257 14.6752 13.5845C14.0998 13.5433 13.5223 13.6263 12.9819 13.8279C12.4414 14.0295 11.9506 14.345 11.5428 14.753L9.1292 17.1666C8.39644 17.9252 7.99098 18.9414 8.00015 19.9962C8.00931 21.0509 8.43237 22.0598 9.17821 22.8056C9.92405 23.5515 10.933 23.9745 11.9877 23.9837C13.0425 23.9928 14.0586 23.5875 14.8173 22.8547L16.193 21.4788"
						stroke="#2E3346" stroke-width="2" stroke-linecap="round" stroke-linejoin="round" />
				</g>
				<defs>
					<clipPath id="clip0_3440_35088111">
						<rect width="32" height="32" fill="white" />
					</clipPath>
				</defs>
			</svg>
		</g>
		<g transform="translate(916 772)" class="appendix-icon"><svg width="32" height="32" viewBox="0 0 32 32"
				fill="none" xmlns="http://www.w3.org/2000/svg">
				<g clip-path="url(#clip0_3440_35088111)">
					<path
						d="M16 31.1109C24.3456 31.1109 31.1111 24.3454 31.1111 15.9998C31.1111 7.65415 24.3456 0.888672 16 0.888672C7.65436 0.888672 0.888885 7.65415 0.888885 15.9998C0.888885 24.3454 7.65436 31.1109 16 31.1109Z"
						fill="white" stroke="#DEE1EB" />
					<path
						d="M14.3909 16.7965C14.7364 17.2584 15.1772 17.6406 15.6834 17.9171C16.1896 18.1938 16.7494 18.3582 17.3248 18.3993C17.9001 18.4405 18.4777 18.3575 19.0181 18.1559C19.5586 17.9543 20.0492 17.6389 20.4571 17.2309L22.8708 14.8173C23.6036 14.0586 24.0089 13.0425 23.9998 11.9877C23.9906 10.933 23.5676 9.92404 22.8217 9.17821C22.0759 8.43237 21.067 8.00931 20.0123 8.00015C18.9575 7.99098 17.9413 8.39644 17.1827 9.1292L15.7988 10.505"
						stroke="#2E3346" stroke-width="2" stroke-linecap="round" stroke-linejoin="round" />
					<path
						d="M17.609 15.1874C17.2635 14.7255 16.8227 14.3433 16.3165 14.0667C15.8103 13.7902 15.2505 13.6257 14.6752 13.5845C14.0998 13.5433 13.5223 13.6263 12.9819 13.8279C12.4414 14.0295 11.9506 14.345 11.5428 14.753L9.1292 17.1666C8.39644 17.9252 7.99098 18.9414 8.00015 19.9962C8.00931 21.0509 8.43237 22.0598 9.17821 22.8056C9.92405 23.5515 10.933 23.9745 11.9877 23.9837C13.0425 23.9928 14.0586 23.5875 14.8173 22.8547L16.193 21.4788"
						stroke="#2E3346" stroke-width="2" stroke-linecap="round" stroke-linejoin="round" />
				</g>
				<defs>
					<clipPath id="clip0_3440_35088111">
						<rect width="32" height="32" fill="white" />
					</clipPath>
				</defs>
			</svg>
		</g>
		<g transform="translate(916 858)" class="appendix-icon"><svg width="32" height="32" viewBox="0 0 32 32"
				fill="none" xmlns="http://www.w3.org/2000/svg">
				<g clip-path="url(#clip0_3440_35088111)">
					<path
						d="M16 31.1109C24.3456 31.1109 31.1111 24.3454 31.1111 15.9998C31.1111 7.65415 24.3456 0.888672 16 0.888672C7.65436 0.888672 0.888885 7.65415 0.888885 15.9998C0.888885 24.3454 7.65436 31.1109 16 31.1109Z"
						fill="white" stroke="#DEE1EB" />
					<path
						d="M14.3909 16.7965C14.7364 17.2584 15.1772 17.6406 15.6834 17.9171C16.1896 18.1938 16.7494 18.3582 17.3248 18.3993C17.9001 18.4405 18.4777 18.3575 19.0181 18.1559C19.5586 17.9543 20.0492 17.6389 20.4571 17.2309L22.8708 14.8173C23.6036 14.0586 24.0089 13.0425 23.9998 11.9877C23.9906 10.933 23.5676 9.92404 22.8217 9.17821C22.0759 8.43237 21.067 8.00931 20.0123 8.00015C18.9575 7.99098 17.9413 8.39644 17.1827 9.1292L15.7988 10.505"
						stroke="#2E3346" stroke-width="2" stroke-linecap="round" stroke-linejoin="round" />
					<path
						d="M17.609 15.1874C17.2635 14.7255 16.8227 14.3433 16.3165 14.0667C15.8103 13.7902 15.2505 13.6257 14.6752 13.5845C14.0998 13.5433 13.5223 13.6263 12.9819 13.8279C12.4414 14.0295 11.9506 14.345 11.5428 14.753L9.1292 17.1666C8.39644 17.9252 7.99098 18.9414 8.00015 19.9962C8.00931 21.0509 8.43237 22.0598 9.17821 22.8056C9.92405 23.5515 10.933 23.9745 11.9877 23.9837C13.0425 23.9928 14.0586 23.5875 14.8173 22.8547L16.193 21.4788"
						stroke="#2E3346" stroke-width="2" stroke-linecap="round" stroke-linejoin="round" />
				</g>
				<defs>
					<clipPath id="clip0_3440_35088111">
						<rect width="32" height="32" fill="white" />
					</clipPath>
				</defs>
			</svg>
		</g>
		<g transform="translate(1471 839)" class="appendix-icon"><svg width="32" height="32" viewBox="0 0 32 32"
				fill="none" xmlns="http://www.w3.org/2000/svg">
				<g clip-path="url(#clip0_3440_35088111)">
					<path
						d="M16 31.1109C24.3456 31.1109 31.1111 24.3454 31.1111 15.9998C31.1111 7.65415 24.3456 0.888672 16 0.888672C7.65436 0.888672 0.888885 7.65415 0.888885 15.9998C0.888885 24.3454 7.65436 31.1109 16 31.1109Z"
						fill="white" stroke="#DEE1EB" />
					<path
						d="M14.3909 16.7965C14.7364 17.2584 15.1772 17.6406 15.6834 17.9171C16.1896 18.1938 16.7494 18.3582 17.3248 18.3993C17.9001 18.4405 18.4777 18.3575 19.0181 18.1559C19.5586 17.9543 20.0492 17.6389 20.4571 17.2309L22.8708 14.8173C23.6036 14.0586 24.0089 13.0425 23.9998 11.9877C23.9906 10.933 23.5676 9.92404 22.8217 9.17821C22.0759 8.43237 21.067 8.00931 20.0123 8.00015C18.9575 7.99098 17.9413 8.39644 17.1827 9.1292L15.7988 10.505"
						stroke="#2E3346" stroke-width="2" stroke-linecap="round" stroke-linejoin="round" />
					<path
						d="M17.609 15.1874C17.2635 14.7255 16.8227 14.3433 16.3165 14.0667C15.8103 13.7902 15.2505 13.6257 14.6752 13.5845C14.0998 13.5433 13.5223 13.6263 12.9819 13.8279C12.4414 14.0295 11.9506 14.345 11.5428 14.753L9.1292 17.1666C8.39644 17.9252 7.99098 18.9414 8.00015 19.9962C8.00931 21.0509 8.43237 22.0598 9.17821 22.8056C9.92405 23.5515 10.933 23.9745 11.9877 23.9837C13.0425 23.9928 14.0586 23.5875 14.8173 22.8547L16.193 21.4788"
						stroke="#2E3346" stroke-width="2" stroke-linecap="round" stroke-linejoin="round" />
				</g>
				<defs>
					<clipPath id="clip0_3440_35088111">
						<rect width="32" height="32" fill="white" />
					</clipPath>
				</defs>
			</svg>
		</g>
		<g transform="translate(1471 925)" class="appendix-icon"><svg width="32" height="32" viewBox="0 0 32 32"
				fill="none" xmlns="http://www.w3.org/2000/svg">
				<g clip-path="url(#clip0_3440_35088111)">
					<path
						d="M16 31.1109C24.3456 31.1109 31.1111 24.3454 31.1111 15.9998C31.1111 7.65415 24.3456 0.888672 16 0.888672C7.65436 0.888672 0.888885 7.65415 0.888885 15.9998C0.888885 24.3454 7.65436 31.1109 16 31.1109Z"
						fill="white" stroke="#DEE1EB" />
					<path
						d="M14.3909 16.7965C14.7364 17.2584 15.1772 17.6406 15.6834 17.9171C16.1896 18.1938 16.7494 18.3582 17.3248 18.3993C17.9001 18.4405 18.4777 18.3575 19.0181 18.1559C19.5586 17.9543 20.0492 17.6389 20.4571 17.2309L22.8708 14.8173C23.6036 14.0586 24.0089 13.0425 23.9998 11.9877C23.9906 10.933 23.5676 9.92404 22.8217 9.17821C22.0759 8.43237 21.067 8.00931 20.0123 8.00015C18.9575 7.99098 17.9413 8.39644 17.1827 9.1292L15.7988 10.505"
						stroke="#2E3346" stroke-width="2" stroke-linecap="round" stroke-linejoin="round" />
					<path
						d="M17.609 15.1874C17.2635 14.7255 16.8227 14.3433 16.3165 14.0667C15.8103 13.7902 15.2505 13.6257 14.6752 13.5845C14.0998 13.5433 13.5223 13.6263 12.9819 13.8279C12.4414 14.0295 11.9506 14.345 11.5428 14.753L9.1292 17.1666C8.39644 17.9252 7.99098 18.9414 8.00015 19.9962C8.00931 21.0509 8.43237 22.0598 9.17821 22.8056C9.92405 23.5515 10.933 23.9745 11.9877 23.9837C13.0425 23.9928 14.0586 23.5875 14.8173 22.8547L16.193 21.4788"
						stroke="#2E3346" stroke-width="2" stroke-linecap="round" stroke-linejoin="round" />
				</g>
				<defs>
					<clipPath id="clip0_3440_35088111">
						<rect width="32" height="32" fill="white" />
					</clipPath>
				</defs>
			</svg>
		</g>
		<g transform="translate(1471 1011)" class="appendix-icon"><svg width="32" height="32" viewBox="0 0 32 32"
				fill="none" xmlns="http://www.w3.org/2000/svg">
				<g clip-path="url(#clip0_3440_35088111)">
					<path
						d="M16 31.1109C24.3456 31.1109 31.1111 24.3454 31.1111 15.9998C31.1111 7.65415 24.3456 0.888672 16 0.888672C7.65436 0.888672 0.888885 7.65415 0.888885 15.9998C0.888885 24.3454 7.65436 31.1109 16 31.1109Z"
						fill="white" stroke="#DEE1EB" />
					<path
						d="M14.3909 16.7965C14.7364 17.2584 15.1772 17.6406 15.6834 17.9171C16.1896 18.1938 16.7494 18.3582 17.3248 18.3993C17.9001 18.4405 18.4777 18.3575 19.0181 18.1559C19.5586 17.9543 20.0492 17.6389 20.4571 17.2309L22.8708 14.8173C23.6036 14.0586 24.0089 13.0425 23.9998 11.9877C23.9906 10.933 23.5676 9.92404 22.8217 9.17821C22.0759 8.43237 21.067 8.00931 20.0123 8.00015C18.9575 7.99098 17.9413 8.39644 17.1827 9.1292L15.7988 10.505"
						stroke="#2E3346" stroke-width="2" stroke-linecap="round" stroke-linejoin="round" />
					<path
						d="M17.609 15.1874C17.2635 14.7255 16.8227 14.3433 16.3165 14.0667C15.8103 13.7902 15.2505 13.6257 14.6752 13.5845C14.0998 13.5433 13.5223 13.6263 12.9819 13.8279C12.4414 14.0295 11.9506 14.345 11.5428 14.753L9.1292 17.1666C8.39644 17.9252 7.99098 18.9414 8.00015 19.9962C8.00931 21.0509 8.43237 22.0598 9.17821 22.8056C9.92405 23.5515 10.933 23.9745 11.9877 23.9837C13.0425 23.9928 14.0586 23.5875 14.8173 22.8547L16.193 21.4788"
						stroke="#2E3346" stroke-width="2" stroke-linecap="round" stroke-linejoin="round" />
				</g>
				<defs>
					<clipPath id="clip0_3440_35088111">
						<rect width="32" height="32" fill="white" />
					</clipPath>
				</defs>
			</svg>
		</g>
		<g transform="translate(1816 839)" class="appendix-icon"><svg width="32" height="32" viewBox="0 0 32 32"
				fill="none" xmlns="http://www.w3.org/2000/svg">
				<g clip-path="url(#clip0_3440_35088111)">
					<path
						d="M16 31.1109C24.3456 31.1109 31.1111 24.3454 31.1111 15.9998C31.1111 7.65415 24.3456 0.888672 16 0.888672C7.65436 0.888672 0.888885 7.65415 0.888885 15.9998C0.888885 24.3454 7.65436 31.1109 16 31.1109Z"
						fill="white" stroke="#DEE1EB" />
					<path
						d="M14.3909 16.7965C14.7364 17.2584 15.1772 17.6406 15.6834 17.9171C16.1896 18.1938 16.7494 18.3582 17.3248 18.3993C17.9001 18.4405 18.4777 18.3575 19.0181 18.1559C19.5586 17.9543 20.0492 17.6389 20.4571 17.2309L22.8708 14.8173C23.6036 14.0586 24.0089 13.0425 23.9998 11.9877C23.9906 10.933 23.5676 9.92404 22.8217 9.17821C22.0759 8.43237 21.067 8.00931 20.0123 8.00015C18.9575 7.99098 17.9413 8.39644 17.1827 9.1292L15.7988 10.505"
						stroke="#2E3346" stroke-width="2" stroke-linecap="round" stroke-linejoin="round" />
					<path
						d="M17.609 15.1874C17.2635 14.7255 16.8227 14.3433 16.3165 14.0667C15.8103 13.7902 15.2505 13.6257 14.6752 13.5845C14.0998 13.5433 13.5223 13.6263 12.9819 13.8279C12.4414 14.0295 11.9506 14.345 11.5428 14.753L9.1292 17.1666C8.39644 17.9252 7.99098 18.9414 8.00015 19.9962C8.00931 21.0509 8.43237 22.0598 9.17821 22.8056C9.92405 23.5515 10.933 23.9745 11.9877 23.9837C13.0425 23.9928 14.0586 23.5875 14.8173 22.8547L16.193 21.4788"
						stroke="#2E3346" stroke-width="2" stroke-linecap="round" stroke-linejoin="round" />
				</g>
				<defs>
					<clipPath id="clip0_3440_35088111">
						<rect width="32" height="32" fill="white" />
					</clipPath>
				</defs>
			</svg>
		</g>
		<g transform="translate(1816 925)" class="appendix-icon"><svg width="32" height="32" viewBox="0 0 32 32"
				fill="none" xmlns="http://www.w3.org/2000/svg">
				<g clip-path="url(#clip0_3440_35088111)">
					<path
						d="M16 31.1109C24.3456 31.1109 31.1111 24.3454 31.1111 15.9998C31.1111 7.65415 24.3456 0.888672 16 0.888672C7.65436 0.888672 0.888885 7.65415 0.888885 15.9998C0.888885 24.3454 7.65436 31.1109 16 31.1109Z"
						fill="white" stroke="#DEE1EB" />
					<path
						d="M14.3909 16.7965C14.7364 17.2584 15.1772 17.6406 15.6834 17.9171C16.1896 18.1938 16.7494 18.3582 17.3248 18.3993C17.9001 18.4405 18.4777 18.3575 19.0181 18.1559C19.5586 17.9543 20.0492 17.6389 20.4571 17.2309L22.8708 14.8173C23.6036 14.0586 24.0089 13.0425 23.9998 11.9877C23.9906 10.933 23.5676 9.92404 22.8217 9.17821C22.0759 8.43237 21.067 8.00931 20.0123 8.00015C18.9575 7.99098 17.9413 8.39644 17.1827 9.1292L15.7988 10.505"
						stroke="#2E3346" stroke-width="2" stroke-linecap="round" stroke-linejoin="round" />
					<path
						d="M17.609 15.1874C17.2635 14.7255 16.8227 14.3433 16.3165 14.0667C15.8103 13.7902 15.2505 13.6257 14.6752 13.5845C14.0998 13.5433 13.5223 13.6263 12.9819 13.8279C12.4414 14.0295 11.9506 14.345 11.5428 14.753L9.1292 17.1666C8.39644 17.9252 7.99098 18.9414 8.00015 19.9962C8.00931 21.0509 8.43237 22.0598 9.17821 22.8056C9.92405 23.5515 10.933 23.9745 11.9877 23.9837C13.0425 23.9928 14.0586 23.5875 14.8173 22.8547L16.193 21.4788"
						stroke="#2E3346" stroke-width="2" stroke-linecap="round" stroke-linejoin="round" />
				</g>
				<defs>
					<clipPath id="clip0_3440_35088111">
						<rect width="32" height="32" fill="white" />
					</clipPath>
				</defs>
			</svg>
		</g>
		<g transform="translate(1816 1011)" class="appendix-icon"><svg width="32" height="32" viewBox="0 0 32 32"
				fill="none" xmlns="http://www.w3.org/2000/svg">
				<g clip-path="url(#clip0_3440_35088111)">
					<path
						d="M16 31.1109C24.3456 31.1109 31.1111 24.3454 31.1111 15.9998C31.1111 7.65415 24.3456 0.888672 16 0.888672C7.65436 0.888672 0.888885 7.65415 0.888885 15.9998C0.888885 24.3454 7.65436 31.1109 16 31.1109Z"
						fill="white" stroke="#DEE1EB" />
					<path
						d="M14.3909 16.7965C14.7364 17.2584 15.1772 17.6406 15.6834 17.9171C16.1896 18.1938 16.7494 18.3582 17.3248 18.3993C17.9001 18.4405 18.4777 18.3575 19.0181 18.1559C19.5586 17.9543 20.0492 17.6389 20.4571 17.2309L22.8708 14.8173C23.6036 14.0586 24.0089 13.0425 23.9998 11.9877C23.9906 10.933 23.5676 9.92404 22.8217 9.17821C22.0759 8.43237 21.067 8.00931 20.0123 8.00015C18.9575 7.99098 17.9413 8.39644 17.1827 9.1292L15.7988 10.505"
						stroke="#2E3346" stroke-width="2" stroke-linecap="round" stroke-linejoin="round" />
					<path
						d="M17.609 15.1874C17.2635 14.7255 16.8227 14.3433 16.3165 14.0667C15.8103 13.7902 15.2505 13.6257 14.6752 13.5845C14.0998 13.5433 13.5223 13.6263 12.9819 13.8279C12.4414 14.0295 11.9506 14.345 11.5428 14.753L9.1292 17.1666C8.39644 17.9252 7.99098 18.9414 8.00015 19.9962C8.00931 21.0509 8.43237 22.0598 9.17821 22.8056C9.92405 23.5515 10.933 23.9745 11.9877 23.9837C13.0425 23.9928 14.0586 23.5875 14.8173 22.8547L16.193 21.4788"
						stroke="#2E3346" stroke-width="2" stroke-linecap="round" stroke-linejoin="round" />
				</g>
				<defs>
					<clipPath id="clip0_3440_35088111">
						<rect width="32" height="32" fill="white" />
					</clipPath>
				</defs>
			</svg>
		</g>
		<g transform="translate(1787 371)" class="appendix-icon"><svg width="32" height="32" viewBox="0 0 32 32"
				fill="none" xmlns="http://www.w3.org/2000/svg">
				<g clip-path="url(#clip0_3440_35088111)">
					<path
						d="M16 31.1109C24.3456 31.1109 31.1111 24.3454 31.1111 15.9998C31.1111 7.65415 24.3456 0.888672 16 0.888672C7.65436 0.888672 0.888885 7.65415 0.888885 15.9998C0.888885 24.3454 7.65436 31.1109 16 31.1109Z"
						fill="white" stroke="#DEE1EB" />
					<path
						d="M14.3909 16.7965C14.7364 17.2584 15.1772 17.6406 15.6834 17.9171C16.1896 18.1938 16.7494 18.3582 17.3248 18.3993C17.9001 18.4405 18.4777 18.3575 19.0181 18.1559C19.5586 17.9543 20.0492 17.6389 20.4571 17.2309L22.8708 14.8173C23.6036 14.0586 24.0089 13.0425 23.9998 11.9877C23.9906 10.933 23.5676 9.92404 22.8217 9.17821C22.0759 8.43237 21.067 8.00931 20.0123 8.00015C18.9575 7.99098 17.9413 8.39644 17.1827 9.1292L15.7988 10.505"
						stroke="#2E3346" stroke-width="2" stroke-linecap="round" stroke-linejoin="round" />
					<path
						d="M17.609 15.1874C17.2635 14.7255 16.8227 14.3433 16.3165 14.0667C15.8103 13.7902 15.2505 13.6257 14.6752 13.5845C14.0998 13.5433 13.5223 13.6263 12.9819 13.8279C12.4414 14.0295 11.9506 14.345 11.5428 14.753L9.1292 17.1666C8.39644 17.9252 7.99098 18.9414 8.00015 19.9962C8.00931 21.0509 8.43237 22.0598 9.17821 22.8056C9.92405 23.5515 10.933 23.9745 11.9877 23.9837C13.0425 23.9928 14.0586 23.5875 14.8173 22.8547L16.193 21.4788"
						stroke="#2E3346" stroke-width="2" stroke-linecap="round" stroke-linejoin="round" />
				</g>
				<defs>
					<clipPath id="clip0_3440_35088111">
						<rect width="32" height="32" fill="white" />
					</clipPath>
				</defs>
			</svg>
		</g>
		<g transform="translate(1787 457)" class="appendix-icon"><svg width="32" height="32" viewBox="0 0 32 32"
				fill="none" xmlns="http://www.w3.org/2000/svg">
				<g clip-path="url(#clip0_3440_35088111)">
					<path
						d="M16 31.1109C24.3456 31.1109 31.1111 24.3454 31.1111 15.9998C31.1111 7.65415 24.3456 0.888672 16 0.888672C7.65436 0.888672 0.888885 7.65415 0.888885 15.9998C0.888885 24.3454 7.65436 31.1109 16 31.1109Z"
						fill="white" stroke="#DEE1EB" />
					<path
						d="M14.3909 16.7965C14.7364 17.2584 15.1772 17.6406 15.6834 17.9171C16.1896 18.1938 16.7494 18.3582 17.3248 18.3993C17.9001 18.4405 18.4777 18.3575 19.0181 18.1559C19.5586 17.9543 20.0492 17.6389 20.4571 17.2309L22.8708 14.8173C23.6036 14.0586 24.0089 13.0425 23.9998 11.9877C23.9906 10.933 23.5676 9.92404 22.8217 9.17821C22.0759 8.43237 21.067 8.00931 20.0123 8.00015C18.9575 7.99098 17.9413 8.39644 17.1827 9.1292L15.7988 10.505"
						stroke="#2E3346" stroke-width="2" stroke-linecap="round" stroke-linejoin="round" />
					<path
						d="M17.609 15.1874C17.2635 14.7255 16.8227 14.3433 16.3165 14.0667C15.8103 13.7902 15.2505 13.6257 14.6752 13.5845C14.0998 13.5433 13.5223 13.6263 12.9819 13.8279C12.4414 14.0295 11.9506 14.345 11.5428 14.753L9.1292 17.1666C8.39644 17.9252 7.99098 18.9414 8.00015 19.9962C8.00931 21.0509 8.43237 22.0598 9.17821 22.8056C9.92405 23.5515 10.933 23.9745 11.9877 23.9837C13.0425 23.9928 14.0586 23.5875 14.8173 22.8547L16.193 21.4788"
						stroke="#2E3346" stroke-width="2" stroke-linecap="round" stroke-linejoin="round" />
				</g>
				<defs>
					<clipPath id="clip0_3440_35088111">
						<rect width="32" height="32" fill="white" />
					</clipPath>
				</defs>
			</svg>
		</g>
		<g transform="translate(1787 543)" class="appendix-icon"><svg width="32" height="32" viewBox="0 0 32 32"
				fill="none" xmlns="http://www.w3.org/2000/svg">
				<g clip-path="url(#clip0_3440_35088111)">
					<path
						d="M16 31.1109C24.3456 31.1109 31.1111 24.3454 31.1111 15.9998C31.1111 7.65415 24.3456 0.888672 16 0.888672C7.65436 0.888672 0.888885 7.65415 0.888885 15.9998C0.888885 24.3454 7.65436 31.1109 16 31.1109Z"
						fill="white" stroke="#DEE1EB" />
					<path
						d="M14.3909 16.7965C14.7364 17.2584 15.1772 17.6406 15.6834 17.9171C16.1896 18.1938 16.7494 18.3582 17.3248 18.3993C17.9001 18.4405 18.4777 18.3575 19.0181 18.1559C19.5586 17.9543 20.0492 17.6389 20.4571 17.2309L22.8708 14.8173C23.6036 14.0586 24.0089 13.0425 23.9998 11.9877C23.9906 10.933 23.5676 9.92404 22.8217 9.17821C22.0759 8.43237 21.067 8.00931 20.0123 8.00015C18.9575 7.99098 17.9413 8.39644 17.1827 9.1292L15.7988 10.505"
						stroke="#2E3346" stroke-width="2" stroke-linecap="round" stroke-linejoin="round" />
					<path
						d="M17.609 15.1874C17.2635 14.7255 16.8227 14.3433 16.3165 14.0667C15.8103 13.7902 15.2505 13.6257 14.6752 13.5845C14.0998 13.5433 13.5223 13.6263 12.9819 13.8279C12.4414 14.0295 11.9506 14.345 11.5428 14.753L9.1292 17.1666C8.39644 17.9252 7.99098 18.9414 8.00015 19.9962C8.00931 21.0509 8.43237 22.0598 9.17821 22.8056C9.92405 23.5515 10.933 23.9745 11.9877 23.9837C13.0425 23.9928 14.0586 23.5875 14.8173 22.8547L16.193 21.4788"
						stroke="#2E3346" stroke-width="2" stroke-linecap="round" stroke-linejoin="round" />
				</g>
				<defs>
					<clipPath id="clip0_3440_35088111">
						<rect width="32" height="32" fill="white" />
					</clipPath>
				</defs>
			</svg>
		</g>
		<g transform="translate(1772 700)" class="appendix-icon"><svg width="32" height="32" viewBox="0 0 32 32"
				fill="none" xmlns="http://www.w3.org/2000/svg">
				<g clip-path="url(#clip0_3440_35088111)">
					<path
						d="M16 31.1109C24.3456 31.1109 31.1111 24.3454 31.1111 15.9998C31.1111 7.65415 24.3456 0.888672 16 0.888672C7.65436 0.888672 0.888885 7.65415 0.888885 15.9998C0.888885 24.3454 7.65436 31.1109 16 31.1109Z"
						fill="white" stroke="#DEE1EB" />
					<path
						d="M14.3909 16.7965C14.7364 17.2584 15.1772 17.6406 15.6834 17.9171C16.1896 18.1938 16.7494 18.3582 17.3248 18.3993C17.9001 18.4405 18.4777 18.3575 19.0181 18.1559C19.5586 17.9543 20.0492 17.6389 20.4571 17.2309L22.8708 14.8173C23.6036 14.0586 24.0089 13.0425 23.9998 11.9877C23.9906 10.933 23.5676 9.92404 22.8217 9.17821C22.0759 8.43237 21.067 8.00931 20.0123 8.00015C18.9575 7.99098 17.9413 8.39644 17.1827 9.1292L15.7988 10.505"
						stroke="#2E3346" stroke-width="2" stroke-linecap="round" stroke-linejoin="round" />
					<path
						d="M17.609 15.1874C17.2635 14.7255 16.8227 14.3433 16.3165 14.0667C15.8103 13.7902 15.2505 13.6257 14.6752 13.5845C14.0998 13.5433 13.5223 13.6263 12.9819 13.8279C12.4414 14.0295 11.9506 14.345 11.5428 14.753L9.1292 17.1666C8.39644 17.9252 7.99098 18.9414 8.00015 19.9962C8.00931 21.0509 8.43237 22.0598 9.17821 22.8056C9.92405 23.5515 10.933 23.9745 11.9877 23.9837C13.0425 23.9928 14.0586 23.5875 14.8173 22.8547L16.193 21.4788"
						stroke="#2E3346" stroke-width="2" stroke-linecap="round" stroke-linejoin="round" />
				</g>
				<defs>
					<clipPath id="clip0_3440_35088111">
						<rect width="32" height="32" fill="white" />
					</clipPath>
				</defs>
			</svg>
		</g>
		<g transform="translate(3257 341)" class="appendix-icon"><svg width="32" height="32" viewBox="0 0 32 32"
				fill="none" xmlns="http://www.w3.org/2000/svg">
				<g clip-path="url(#clip0_3440_35088111)">
					<path
						d="M16 31.1109C24.3456 31.1109 31.1111 24.3454 31.1111 15.9998C31.1111 7.65415 24.3456 0.888672 16 0.888672C7.65436 0.888672 0.888885 7.65415 0.888885 15.9998C0.888885 24.3454 7.65436 31.1109 16 31.1109Z"
						fill="white" stroke="#DEE1EB" />
					<path
						d="M14.3909 16.7965C14.7364 17.2584 15.1772 17.6406 15.6834 17.9171C16.1896 18.1938 16.7494 18.3582 17.3248 18.3993C17.9001 18.4405 18.4777 18.3575 19.0181 18.1559C19.5586 17.9543 20.0492 17.6389 20.4571 17.2309L22.8708 14.8173C23.6036 14.0586 24.0089 13.0425 23.9998 11.9877C23.9906 10.933 23.5676 9.92404 22.8217 9.17821C22.0759 8.43237 21.067 8.00931 20.0123 8.00015C18.9575 7.99098 17.9413 8.39644 17.1827 9.1292L15.7988 10.505"
						stroke="#2E3346" stroke-width="2" stroke-linecap="round" stroke-linejoin="round" />
					<path
						d="M17.609 15.1874C17.2635 14.7255 16.8227 14.3433 16.3165 14.0667C15.8103 13.7902 15.2505 13.6257 14.6752 13.5845C14.0998 13.5433 13.5223 13.6263 12.9819 13.8279C12.4414 14.0295 11.9506 14.345 11.5428 14.753L9.1292 17.1666C8.39644 17.9252 7.99098 18.9414 8.00015 19.9962C8.00931 21.0509 8.43237 22.0598 9.17821 22.8056C9.92405 23.5515 10.933 23.9745 11.9877 23.9837C13.0425 23.9928 14.0586 23.5875 14.8173 22.8547L16.193 21.4788"
						stroke="#2E3346" stroke-width="2" stroke-linecap="round" stroke-linejoin="round" />
				</g>
				<defs>
					<clipPath id="clip0_3440_35088111">
						<rect width="32" height="32" fill="white" />
					</clipPath>
				</defs>
			</svg>
		</g>
		<g transform="translate(3257 427)" class="appendix-icon"><svg width="32" height="32" viewBox="0 0 32 32"
				fill="none" xmlns="http://www.w3.org/2000/svg">
				<g clip-path="url(#clip0_3440_35088111)">
					<path
						d="M16 31.1109C24.3456 31.1109 31.1111 24.3454 31.1111 15.9998C31.1111 7.65415 24.3456 0.888672 16 0.888672C7.65436 0.888672 0.888885 7.65415 0.888885 15.9998C0.888885 24.3454 7.65436 31.1109 16 31.1109Z"
						fill="white" stroke="#DEE1EB" />
					<path
						d="M14.3909 16.7965C14.7364 17.2584 15.1772 17.6406 15.6834 17.9171C16.1896 18.1938 16.7494 18.3582 17.3248 18.3993C17.9001 18.4405 18.4777 18.3575 19.0181 18.1559C19.5586 17.9543 20.0492 17.6389 20.4571 17.2309L22.8708 14.8173C23.6036 14.0586 24.0089 13.0425 23.9998 11.9877C23.9906 10.933 23.5676 9.92404 22.8217 9.17821C22.0759 8.43237 21.067 8.00931 20.0123 8.00015C18.9575 7.99098 17.9413 8.39644 17.1827 9.1292L15.7988 10.505"
						stroke="#2E3346" stroke-width="2" stroke-linecap="round" stroke-linejoin="round" />
					<path
						d="M17.609 15.1874C17.2635 14.7255 16.8227 14.3433 16.3165 14.0667C15.8103 13.7902 15.2505 13.6257 14.6752 13.5845C14.0998 13.5433 13.5223 13.6263 12.9819 13.8279C12.4414 14.0295 11.9506 14.345 11.5428 14.753L9.1292 17.1666C8.39644 17.9252 7.99098 18.9414 8.00015 19.9962C8.00931 21.0509 8.43237 22.0598 9.17821 22.8056C9.92405 23.5515 10.933 23.9745 11.9877 23.9837C13.0425 23.9928 14.0586 23.5875 14.8173 22.8547L16.193 21.4788"
						stroke="#2E3346" stroke-width="2" stroke-linecap="round" stroke-linejoin="round" />
				</g>
				<defs>
					<clipPath id="clip0_3440_35088111">
						<rect width="32" height="32" fill="white" />
					</clipPath>
				</defs>
			</svg>
		</g>
		<g transform="translate(3257 513)" class="appendix-icon"><svg width="32" height="32" viewBox="0 0 32 32"
				fill="none" xmlns="http://www.w3.org/2000/svg">
				<g clip-path="url(#clip0_3440_35088111)">
					<path
						d="M16 31.1109C24.3456 31.1109 31.1111 24.3454 31.1111 15.9998C31.1111 7.65415 24.3456 0.888672 16 0.888672C7.65436 0.888672 0.888885 7.65415 0.888885 15.9998C0.888885 24.3454 7.65436 31.1109 16 31.1109Z"
						fill="white" stroke="#DEE1EB" />
					<path
						d="M14.3909 16.7965C14.7364 17.2584 15.1772 17.6406 15.6834 17.9171C16.1896 18.1938 16.7494 18.3582 17.3248 18.3993C17.9001 18.4405 18.4777 18.3575 19.0181 18.1559C19.5586 17.9543 20.0492 17.6389 20.4571 17.2309L22.8708 14.8173C23.6036 14.0586 24.0089 13.0425 23.9998 11.9877C23.9906 10.933 23.5676 9.92404 22.8217 9.17821C22.0759 8.43237 21.067 8.00931 20.0123 8.00015C18.9575 7.99098 17.9413 8.39644 17.1827 9.1292L15.7988 10.505"
						stroke="#2E3346" stroke-width="2" stroke-linecap="round" stroke-linejoin="round" />
					<path
						d="M17.609 15.1874C17.2635 14.7255 16.8227 14.3433 16.3165 14.0667C15.8103 13.7902 15.2505 13.6257 14.6752 13.5845C14.0998 13.5433 13.5223 13.6263 12.9819 13.8279C12.4414 14.0295 11.9506 14.345 11.5428 14.753L9.1292 17.1666C8.39644 17.9252 7.99098 18.9414 8.00015 19.9962C8.00931 21.0509 8.43237 22.0598 9.17821 22.8056C9.92405 23.5515 10.933 23.9745 11.9877 23.9837C13.0425 23.9928 14.0586 23.5875 14.8173 22.8547L16.193 21.4788"
						stroke="#2E3346" stroke-width="2" stroke-linecap="round" stroke-linejoin="round" />
				</g>
				<defs>
					<clipPath id="clip0_3440_35088111">
						<rect width="32" height="32" fill="white" />
					</clipPath>
				</defs>
			</svg>
		</g>
		<g transform="translate(3257 599)" class="appendix-icon"><svg width="32" height="32" viewBox="0 0 32 32"
				fill="none" xmlns="http://www.w3.org/2000/svg">
				<g clip-path="url(#clip0_3440_35088111)">
					<path
						d="M16 31.1109C24.3456 31.1109 31.1111 24.3454 31.1111 15.9998C31.1111 7.65415 24.3456 0.888672 16 0.888672C7.65436 0.888672 0.888885 7.65415 0.888885 15.9998C0.888885 24.3454 7.65436 31.1109 16 31.1109Z"
						fill="white" stroke="#DEE1EB" />
					<path
						d="M14.3909 16.7965C14.7364 17.2584 15.1772 17.6406 15.6834 17.9171C16.1896 18.1938 16.7494 18.3582 17.3248 18.3993C17.9001 18.4405 18.4777 18.3575 19.0181 18.1559C19.5586 17.9543 20.0492 17.6389 20.4571 17.2309L22.8708 14.8173C23.6036 14.0586 24.0089 13.0425 23.9998 11.9877C23.9906 10.933 23.5676 9.92404 22.8217 9.17821C22.0759 8.43237 21.067 8.00931 20.0123 8.00015C18.9575 7.99098 17.9413 8.39644 17.1827 9.1292L15.7988 10.505"
						stroke="#2E3346" stroke-width="2" stroke-linecap="round" stroke-linejoin="round" />
					<path
						d="M17.609 15.1874C17.2635 14.7255 16.8227 14.3433 16.3165 14.0667C15.8103 13.7902 15.2505 13.6257 14.6752 13.5845C14.0998 13.5433 13.5223 13.6263 12.9819 13.8279C12.4414 14.0295 11.9506 14.345 11.5428 14.753L9.1292 17.1666C8.39644 17.9252 7.99098 18.9414 8.00015 19.9962C8.00931 21.0509 8.43237 22.0598 9.17821 22.8056C9.92405 23.5515 10.933 23.9745 11.9877 23.9837C13.0425 23.9928 14.0586 23.5875 14.8173 22.8547L16.193 21.4788"
						stroke="#2E3346" stroke-width="2" stroke-linecap="round" stroke-linejoin="round" />
				</g>
				<defs>
					<clipPath id="clip0_3440_35088111">
						<rect width="32" height="32" fill="white" />
					</clipPath>
				</defs>
			</svg>
		</g>
		<g transform="translate(3257 685)" class="appendix-icon"><svg width="32" height="32" viewBox="0 0 32 32"
				fill="none" xmlns="http://www.w3.org/2000/svg">
				<g clip-path="url(#clip0_3440_35088111)">
					<path
						d="M16 31.1109C24.3456 31.1109 31.1111 24.3454 31.1111 15.9998C31.1111 7.65415 24.3456 0.888672 16 0.888672C7.65436 0.888672 0.888885 7.65415 0.888885 15.9998C0.888885 24.3454 7.65436 31.1109 16 31.1109Z"
						fill="white" stroke="#DEE1EB" />
					<path
						d="M14.3909 16.7965C14.7364 17.2584 15.1772 17.6406 15.6834 17.9171C16.1896 18.1938 16.7494 18.3582 17.3248 18.3993C17.9001 18.4405 18.4777 18.3575 19.0181 18.1559C19.5586 17.9543 20.0492 17.6389 20.4571 17.2309L22.8708 14.8173C23.6036 14.0586 24.0089 13.0425 23.9998 11.9877C23.9906 10.933 23.5676 9.92404 22.8217 9.17821C22.0759 8.43237 21.067 8.00931 20.0123 8.00015C18.9575 7.99098 17.9413 8.39644 17.1827 9.1292L15.7988 10.505"
						stroke="#2E3346" stroke-width="2" stroke-linecap="round" stroke-linejoin="round" />
					<path
						d="M17.609 15.1874C17.2635 14.7255 16.8227 14.3433 16.3165 14.0667C15.8103 13.7902 15.2505 13.6257 14.6752 13.5845C14.0998 13.5433 13.5223 13.6263 12.9819 13.8279C12.4414 14.0295 11.9506 14.345 11.5428 14.753L9.1292 17.1666C8.39644 17.9252 7.99098 18.9414 8.00015 19.9962C8.00931 21.0509 8.43237 22.0598 9.17821 22.8056C9.92405 23.5515 10.933 23.9745 11.9877 23.9837C13.0425 23.9928 14.0586 23.5875 14.8173 22.8547L16.193 21.4788"
						stroke="#2E3346" stroke-width="2" stroke-linecap="round" stroke-linejoin="round" />
				</g>
				<defs>
					<clipPath id="clip0_3440_35088111">
						<rect width="32" height="32" fill="white" />
					</clipPath>
				</defs>
			</svg>
		</g>
		<g transform="translate(3257 771)" class="appendix-icon"><svg width="32" height="32" viewBox="0 0 32 32"
				fill="none" xmlns="http://www.w3.org/2000/svg">
				<g clip-path="url(#clip0_3440_35088111)">
					<path
						d="M16 31.1109C24.3456 31.1109 31.1111 24.3454 31.1111 15.9998C31.1111 7.65415 24.3456 0.888672 16 0.888672C7.65436 0.888672 0.888885 7.65415 0.888885 15.9998C0.888885 24.3454 7.65436 31.1109 16 31.1109Z"
						fill="white" stroke="#DEE1EB" />
					<path
						d="M14.3909 16.7965C14.7364 17.2584 15.1772 17.6406 15.6834 17.9171C16.1896 18.1938 16.7494 18.3582 17.3248 18.3993C17.9001 18.4405 18.4777 18.3575 19.0181 18.1559C19.5586 17.9543 20.0492 17.6389 20.4571 17.2309L22.8708 14.8173C23.6036 14.0586 24.0089 13.0425 23.9998 11.9877C23.9906 10.933 23.5676 9.92404 22.8217 9.17821C22.0759 8.43237 21.067 8.00931 20.0123 8.00015C18.9575 7.99098 17.9413 8.39644 17.1827 9.1292L15.7988 10.505"
						stroke="#2E3346" stroke-width="2" stroke-linecap="round" stroke-linejoin="round" />
					<path
						d="M17.609 15.1874C17.2635 14.7255 16.8227 14.3433 16.3165 14.0667C15.8103 13.7902 15.2505 13.6257 14.6752 13.5845C14.0998 13.5433 13.5223 13.6263 12.9819 13.8279C12.4414 14.0295 11.9506 14.345 11.5428 14.753L9.1292 17.1666C8.39644 17.9252 7.99098 18.9414 8.00015 19.9962C8.00931 21.0509 8.43237 22.0598 9.17821 22.8056C9.92405 23.5515 10.933 23.9745 11.9877 23.9837C13.0425 23.9928 14.0586 23.5875 14.8173 22.8547L16.193 21.4788"
						stroke="#2E3346" stroke-width="2" stroke-linecap="round" stroke-linejoin="round" />
				</g>
				<defs>
					<clipPath id="clip0_3440_35088111">
						<rect width="32" height="32" fill="white" />
					</clipPath>
				</defs>
			</svg>
		</g>
		<g transform="translate(2384 569)" class="appendix-icon"><svg width="32" height="32" viewBox="0 0 32 32"
				fill="none" xmlns="http://www.w3.org/2000/svg">
				<g clip-path="url(#clip0_3440_35088111)">
					<path
						d="M16 31.1109C24.3456 31.1109 31.1111 24.3454 31.1111 15.9998C31.1111 7.65415 24.3456 0.888672 16 0.888672C7.65436 0.888672 0.888885 7.65415 0.888885 15.9998C0.888885 24.3454 7.65436 31.1109 16 31.1109Z"
						fill="white" stroke="#DEE1EB" />
					<path
						d="M14.3909 16.7965C14.7364 17.2584 15.1772 17.6406 15.6834 17.9171C16.1896 18.1938 16.7494 18.3582 17.3248 18.3993C17.9001 18.4405 18.4777 18.3575 19.0181 18.1559C19.5586 17.9543 20.0492 17.6389 20.4571 17.2309L22.8708 14.8173C23.6036 14.0586 24.0089 13.0425 23.9998 11.9877C23.9906 10.933 23.5676 9.92404 22.8217 9.17821C22.0759 8.43237 21.067 8.00931 20.0123 8.00015C18.9575 7.99098 17.9413 8.39644 17.1827 9.1292L15.7988 10.505"
						stroke="#2E3346" stroke-width="2" stroke-linecap="round" stroke-linejoin="round" />
					<path
						d="M17.609 15.1874C17.2635 14.7255 16.8227 14.3433 16.3165 14.0667C15.8103 13.7902 15.2505 13.6257 14.6752 13.5845C14.0998 13.5433 13.5223 13.6263 12.9819 13.8279C12.4414 14.0295 11.9506 14.345 11.5428 14.753L9.1292 17.1666C8.39644 17.9252 7.99098 18.9414 8.00015 19.9962C8.00931 21.0509 8.43237 22.0598 9.17821 22.8056C9.92405 23.5515 10.933 23.9745 11.9877 23.9837C13.0425 23.9928 14.0586 23.5875 14.8173 22.8547L16.193 21.4788"
						stroke="#2E3346" stroke-width="2" stroke-linecap="round" stroke-linejoin="round" />
				</g>
				<defs>
					<clipPath id="clip0_3440_35088111">
						<rect width="32" height="32" fill="white" />
					</clipPath>
				</defs>
			</svg>
		</g>
		<g transform="translate(2384 655)" class="appendix-icon"><svg width="32" height="32" viewBox="0 0 32 32"
				fill="none" xmlns="http://www.w3.org/2000/svg">
				<g clip-path="url(#clip0_3440_35088111)">
					<path
						d="M16 31.1109C24.3456 31.1109 31.1111 24.3454 31.1111 15.9998C31.1111 7.65415 24.3456 0.888672 16 0.888672C7.65436 0.888672 0.888885 7.65415 0.888885 15.9998C0.888885 24.3454 7.65436 31.1109 16 31.1109Z"
						fill="white" stroke="#DEE1EB" />
					<path
						d="M14.3909 16.7965C14.7364 17.2584 15.1772 17.6406 15.6834 17.9171C16.1896 18.1938 16.7494 18.3582 17.3248 18.3993C17.9001 18.4405 18.4777 18.3575 19.0181 18.1559C19.5586 17.9543 20.0492 17.6389 20.4571 17.2309L22.8708 14.8173C23.6036 14.0586 24.0089 13.0425 23.9998 11.9877C23.9906 10.933 23.5676 9.92404 22.8217 9.17821C22.0759 8.43237 21.067 8.00931 20.0123 8.00015C18.9575 7.99098 17.9413 8.39644 17.1827 9.1292L15.7988 10.505"
						stroke="#2E3346" stroke-width="2" stroke-linecap="round" stroke-linejoin="round" />
					<path
						d="M17.609 15.1874C17.2635 14.7255 16.8227 14.3433 16.3165 14.0667C15.8103 13.7902 15.2505 13.6257 14.6752 13.5845C14.0998 13.5433 13.5223 13.6263 12.9819 13.8279C12.4414 14.0295 11.9506 14.345 11.5428 14.753L9.1292 17.1666C8.39644 17.9252 7.99098 18.9414 8.00015 19.9962C8.00931 21.0509 8.43237 22.0598 9.17821 22.8056C9.92405 23.5515 10.933 23.9745 11.9877 23.9837C13.0425 23.9928 14.0586 23.5875 14.8173 22.8547L16.193 21.4788"
						stroke="#2E3346" stroke-width="2" stroke-linecap="round" stroke-linejoin="round" />
				</g>
				<defs>
					<clipPath id="clip0_3440_35088111">
						<rect width="32" height="32" fill="white" />
					</clipPath>
				</defs>
			</svg>
		</g>
		<g transform="translate(2384 741)" class="appendix-icon"><svg width="32" height="32" viewBox="0 0 32 32"
				fill="none" xmlns="http://www.w3.org/2000/svg">
				<g clip-path="url(#clip0_3440_35088111)">
					<path
						d="M16 31.1109C24.3456 31.1109 31.1111 24.3454 31.1111 15.9998C31.1111 7.65415 24.3456 0.888672 16 0.888672C7.65436 0.888672 0.888885 7.65415 0.888885 15.9998C0.888885 24.3454 7.65436 31.1109 16 31.1109Z"
						fill="white" stroke="#DEE1EB" />
					<path
						d="M14.3909 16.7965C14.7364 17.2584 15.1772 17.6406 15.6834 17.9171C16.1896 18.1938 16.7494 18.3582 17.3248 18.3993C17.9001 18.4405 18.4777 18.3575 19.0181 18.1559C19.5586 17.9543 20.0492 17.6389 20.4571 17.2309L22.8708 14.8173C23.6036 14.0586 24.0089 13.0425 23.9998 11.9877C23.9906 10.933 23.5676 9.92404 22.8217 9.17821C22.0759 8.43237 21.067 8.00931 20.0123 8.00015C18.9575 7.99098 17.9413 8.39644 17.1827 9.1292L15.7988 10.505"
						stroke="#2E3346" stroke-width="2" stroke-linecap="round" stroke-linejoin="round" />
					<path
						d="M17.609 15.1874C17.2635 14.7255 16.8227 14.3433 16.3165 14.0667C15.8103 13.7902 15.2505 13.6257 14.6752 13.5845C14.0998 13.5433 13.5223 13.6263 12.9819 13.8279C12.4414 14.0295 11.9506 14.345 11.5428 14.753L9.1292 17.1666C8.39644 17.9252 7.99098 18.9414 8.00015 19.9962C8.00931 21.0509 8.43237 22.0598 9.17821 22.8056C9.92405 23.5515 10.933 23.9745 11.9877 23.9837C13.0425 23.9928 14.0586 23.5875 14.8173 22.8547L16.193 21.4788"
						stroke="#2E3346" stroke-width="2" stroke-linecap="round" stroke-linejoin="round" />
				</g>
				<defs>
					<clipPath id="clip0_3440_35088111">
						<rect width="32" height="32" fill="white" />
					</clipPath>
				</defs>
			</svg>
		</g>
		<mask id="d2-3660682979" maskUnits="userSpaceOnUse" x="-101" y="-101" width="3535" height="1555">
			<rect x="-101" y="-101" width="3535" height="1555" fill="white"></rect>
			<rect x="1601.000000" y="203.000000" width="131" height="36" fill="rgba(0,0,0,0.75)"></rect>
			<rect x="435.500000" y="22.500000" width="164" height="21" fill="rgba(0,0,0,0.75)"></rect>
			<rect x="22.500000" y="1255.500000" width="144" height="21" fill="rgba(0,0,0,0.75)"></rect>
			<rect x="2542.500000" y="1309.500000" width="134" height="21" fill="rgba(0,0,0,0.75)"></rect>
			<rect x="478.500000" y="495.500000" width="77" height="21" fill="rgba(0,0,0,0.75)"></rect>
			<rect x="98.500000" y="280.500000" width="257" height="21" fill="rgba(0,0,0,0.75)"></rect>
			<rect x="165.000000" y="366.500000" width="124" height="21" fill="rgba(0,0,0,0.75)"></rect>
			<rect x="131.500000" y="452.500000" width="191" height="21" fill="rgba(0,0,0,0.75)"></rect>
			<rect x="151.000000" y="538.500000" width="152" height="21" fill="rgba(0,0,0,0.75)"></rect>
			<rect x="127.500000" y="624.500000" width="199" height="21" fill="rgba(0,0,0,0.75)"></rect>
			<rect x="103.500000" y="710.500000" width="247" height="21" fill="rgba(0,0,0,0.75)"></rect>
			<rect x="489.500000" y="761.500000" width="56" height="32" fill="rgba(0,0,0,0.75)"></rect>
			<rect x="717.000000" y="638.500000" width="152" height="21" fill="rgba(0,0,0,0.75)"></rect>
			<rect x="692.500000" y="724.500000" width="201" height="21" fill="rgba(0,0,0,0.75)"></rect>
			<rect x="730.000000" y="810.500000" width="126" height="21" fill="rgba(0,0,0,0.75)"></rect>
			<rect x="745.000000" y="896.500000" width="96" height="21" fill="rgba(0,0,0,0.75)"></rect>
			<rect x="1088.000000" y="958.000000" width="44" height="32" fill="rgba(0,0,0,0.75)"></rect>
			<rect x="1291.500000" y="877.500000" width="152" height="21" fill="rgba(0,0,0,0.75)"></rect>
			<rect x="1300.500000" y="963.500000" width="134" height="21" fill="rgba(0,0,0,0.75)"></rect>
			<rect x="1286.500000" y="1049.500000" width="162" height="21" fill="rgba(0,0,0,0.75)"></rect>
			<rect x="1963.500000" y="963.500000" width="97" height="21" fill="rgba(0,0,0,0.75)"></rect>
			<rect x="1612.500000" y="877.500000" width="152" height="21" fill="rgba(0,0,0,0.75)"></rect>
			<rect x="1583.500000" y="963.500000" width="210" height="21" fill="rgba(0,0,0,0.75)"></rect>
			<rect x="1589.500000" y="1049.500000" width="198" height="21" fill="rgba(0,0,0,0.75)"></rect>
			<rect x="1959.500000" y="495.500000" width="105" height="21" fill="rgba(0,0,0,0.75)"></rect>
			<rect x="1693.000000" y="409.500000" width="57" height="21" fill="rgba(0,0,0,0.75)"></rect>
			<rect x="1693.000000" y="495.500000" width="57" height="21" fill="rgba(0,0,0,0.75)"></rect>
			<rect x="1678.500000" y="581.500000" width="86" height="21" fill="rgba(0,0,0,0.75)"></rect>
			<rect x="1901.500000" y="738.500000" width="221" height="21" fill="rgba(0,0,0,0.75)"></rect>
			<rect x="1719.500000" y="738.500000" width="30" height="21" fill="rgba(0,0,0,0.75)"></rect>
			<rect x="2358.500000" y="468.500000" width="152" height="21" fill="rgba(0,0,0,0.75)"></rect>
			<rect x="2853.500000" y="594.500000" width="153" height="21" fill="rgba(0,0,0,0.75)"></rect>
			<rect x="3176.500000" y="379.500000" width="48" height="21" fill="rgba(0,0,0,0.75)"></rect>
			<rect x="3172.000000" y="465.500000" width="57" height="21" fill="rgba(0,0,0,0.75)"></rect>
			<rect x="3166.500000" y="551.500000" width="68" height="21" fill="rgba(0,0,0,0.75)"></rect>
			<rect x="3172.000000" y="637.500000" width="57" height="21" fill="rgba(0,0,0,0.75)"></rect>
			<rect x="3167.000000" y="723.500000" width="67" height="21" fill="rgba(0,0,0,0.75)"></rect>
			<rect x="3181.000000" y="809.500000" width="39" height="21" fill="rgba(0,0,0,0.75)"></rect>
			<rect x="2556.500000" y="693.500000" width="105" height="21" fill="rgba(0,0,0,0.75)"></rect>
			<rect x="2279.500000" y="607.500000" width="78" height="21" fill="rgba(0,0,0,0.75)"></rect>
			<rect x="2280.500000" y="693.500000" width="76" height="21" fill="rgba(0,0,0,0.75)"></rect>
			<rect x="2275.500000" y="779.500000" width="86" height="21" fill="rgba(0,0,0,0.75)"></rect>
		</mask>
	</svg></svg>