<svg xmlns="http://www.w3.org/2000/svg" xmlns:xlink="http://www.w3.org/1999/xlink" d2Version="v0.6.0-HEAD"
	[attr.viewBox]="viewBox.join(' ')" height="100%" overflow="hidden"><svg id="d2-svg" class="d2-3861335636"
		width="1618" height="2221" viewBox="-101 -101 1618 2221">
		<rect x="-101.000000" y="-101.000000" width="1618.000000" height="2221.000000" rx="0.000000" class=" fill-N7"
			stroke-width="0" />

		<defs>
			<pattern id="dots" x="0" y="0" width="15" height="15" patternUnits="userSpaceOnUse">
				<g style="mix-blend-mode:multiply" opacity="0.1">
					<rect x="2" y="2" width="1" height="1" fill="#0A0F25" />
				</g>
				<g style="mix-blend-mode:multiply" opacity="0.1">
					<rect x="12" y="2" width="1" height="1" fill="#0A0F25" />
				</g>
				<g style="mix-blend-mode:multiply" opacity="0.1">
					<rect x="12" y="12" width="1" height="1" fill="#0A0F25" />
				</g>
				<g style="mix-blend-mode:multiply" opacity="0.1">
					<rect x="2" y="12" width="1" height="1" fill="#0A0F25" />
				</g>
				<g style="mix-blend-mode:multiply" opacity="0.1">
					<rect x="2" y="7" width="1" height="1" fill="#0A0F25" />
				</g>
				<g style="mix-blend-mode:multiply" opacity="0.1">
					<rect x="12" y="7" width="1" height="1" fill="#0A0F25" />
				</g>
				<g style="mix-blend-mode:multiply" opacity="0.1">
					<rect x="7" y="2" width="1" height="1" fill="#0A0F25" />
				</g>
				<g style="mix-blend-mode:multiply" opacity="0.1">
					<rect x="7" y="12" width="1" height="1" fill="#0A0F25" />
				</g>
				<g style="mix-blend-mode:multiply" opacity="0.1">
					<rect x="7" y="7" width="1" height="1" fill="#0A0F25" />
				</g>
			</pattern>
		</defs>
		<g id="frontend">
			<g class="shape">
				<rect x="0.000000" y="198.000000" width="1416.000000" height="1634.000000" fill="#fff"
					class=" stroke-B2" style="stroke-width:2;stroke-dasharray:6.000000,5.919384;" />
				<rect x="0.000000" y="198.000000" width="1416.000000" height="1634.000000" class="dots-overlay"
					style="stroke-width:2;stroke-dasharray:6.000000,5.919384;" />
				<rect x="5.000000" y="203.000000" width="1406.000000" height="1624.000000" fill="transparent"
					class=" stroke-B2" style="stroke-width:2;stroke-dasharray:6.000000,5.919384;" />
			</g><text x="708.000000" y="231.000000" class="text-mono fill-N1"
				style="text-anchor:middle;font-size:28px">FRONTEND</text>
		</g>
		<g id="start">
			<g class="shape">
				<rect x="432.000000" y="0.000000" width="170.000000" height="66.000000" class=" stroke-B1 fill-B6"
					style="stroke-width:2;" />
			</g><text x="517.000000" y="38.500000" class="text-mono-bold fill-N1"
				style="text-anchor:middle;font-size:16px">START ROADMAP</text>
		</g>
		<g id="end">
			<g class="shape">
				<rect x="818.000000" y="1953.000000" width="149.000000" height="66.000000" class=" stroke-B1 fill-B6"
					style="stroke-width:2;" />
			</g><text x="892.500000" y="1991.500000" class="text-mono-bold fill-N1"
				style="text-anchor:middle;font-size:16px">END ROADMAP</text>
		</g>
		<g id="frontend.internet">
			<g class="shape">
				<rect x="456.000000" y="446.000000" width="122.000000" height="120.000000" class=" stroke-B1 fill-B5"
					style="stroke-width:2;" />
			</g><text x="517.000000" y="511.500000" class="text-mono-bold fill-N1"
				style="text-anchor:middle;font-size:16px">INTERNET</text>
		</g><a href="/map?id=internet_1" xlink:href="/map?id=internet_1">
			<g id="frontend.internet_1">
				<g class="shape">
					<rect x="60.000000" y="258.000000" width="334.000000" height="66.000000" fill="orange"
						class=" stroke-B1" style="stroke-width:2;" />
				</g><text x="227.000000" y="296.500000" class="text-mono-bold fill-N1"
					style="text-anchor:middle;font-size:16px">HOW DOES THE INTERNET WORK?</text>
			</g>
		</a>
		<g id="frontend.internet_2">
			<g class="shape">
				<rect x="60.000000" y="344.000000" width="334.000000" height="66.000000" fill="orange"
					class=" stroke-B1" style="stroke-width:2;" />
			</g><text x="227.000000" y="382.500000" class="text-mono-bold fill-N1"
				style="text-anchor:middle;font-size:16px">WHAT IS HTTP?</text>
		</g>
		<g id="frontend.internet_3">
			<g class="shape">
				<rect x="60.000000" y="430.000000" width="334.000000" height="66.000000" fill="orange"
					class=" stroke-B1" style="stroke-width:2;" />
			</g><text x="227.000000" y="468.500000" class="text-mono-bold fill-N1"
				style="text-anchor:middle;font-size:16px">WHAT IS DOMAIN NAME?</text>
		</g>
		<g id="frontend.internet_4">
			<g class="shape">
				<rect x="60.000000" y="516.000000" width="334.000000" height="66.000000" fill="orange"
					class=" stroke-B1" style="stroke-width:2;" />
			</g><text x="227.000000" y="554.500000" class="text-mono-bold fill-N1"
				style="text-anchor:middle;font-size:16px">WHAT IS HOSTING?</text>
		</g>
		<g id="frontend.internet_5">
			<g class="shape">
				<rect x="60.000000" y="602.000000" width="334.000000" height="66.000000" fill="orange"
					class=" stroke-B1" style="stroke-width:2;" />
			</g><text x="227.000000" y="640.500000" class="text-mono-bold fill-N1"
				style="text-anchor:middle;font-size:16px">DNS AND HOW IT WORKS?</text>
		</g>
		<g id="frontend.internet_6">
			<g class="shape">
				<rect x="60.000000" y="688.000000" width="334.000000" height="66.000000" fill="orange"
					class=" stroke-B1" style="stroke-width:2;" />
			</g><text x="227.000000" y="726.500000" class="text-mono-bold fill-N1"
				style="text-anchor:middle;font-size:16px">BROWSER AND HOW THEY WORK?</text>
		</g>
		<g id="frontend.html">
			<g class="shape">
				<rect x="456.000000" y="716.000000" width="123.000000" height="123.000000" class=" stroke-B1 fill-B5"
					style="stroke-width:2;" />
			</g><text x="517.500000" y="785.500000" class="text-mono-bold fill-N1"
				style="text-anchor:middle;font-size:24px">HTML</text>
		</g>
		<g id="frontend.html_1">
			<g class="shape">
				<rect x="654.000000" y="616.000000" width="246.000000" height="66.000000" fill="orange"
					class=" stroke-B1" style="stroke-width:2;" />
			</g><text x="777.000000" y="654.500000" class="text-mono-bold fill-N1"
				style="text-anchor:middle;font-size:16px">LEARN THE BASICS</text>
		</g>
		<g id="frontend.html_2">
			<g class="shape">
				<rect x="654.000000" y="702.000000" width="246.000000" height="66.000000" fill="orange"
					class=" stroke-B1" style="stroke-width:2;" />
			</g><text x="777.000000" y="740.500000" class="text-mono-bold fill-N1"
				style="text-anchor:middle;font-size:16px">WRITING SEMANTIC HTML</text>
		</g>
		<g id="frontend.html_3">
			<g class="shape">
				<rect x="654.000000" y="788.000000" width="246.000000" height="66.000000" fill="orange"
					class=" stroke-B1" style="stroke-width:2;" />
			</g><text x="777.000000" y="826.500000" class="text-mono-bold fill-N1"
				style="text-anchor:middle;font-size:16px">ACCESSIBILITY</text>
		</g>
		<g id="frontend.html_4">
			<g class="shape">
				<rect x="654.000000" y="874.000000" width="246.000000" height="66.000000" fill="orange"
					class=" stroke-B1" style="stroke-width:2;" />
			</g><text x="777.000000" y="912.500000" class="text-mono-bold fill-N1"
				style="text-anchor:middle;font-size:16px">SEO BASICS</text>
		</g>
		<g id="frontend.css">
			<g class="shape">
				<rect x="951.000000" y="716.000000" width="120.000000" height="120.000000" class=" stroke-B1 fill-B5"
					style="stroke-width:2;" />
			</g><text x="1011.000000" y="784.000000" class="text-mono-bold fill-N1"
				style="text-anchor:middle;font-size:24px">CSS</text>
		</g>
		<g id="frontend.css_1">
			<g class="shape">
				<rect x="1149.000000" y="657.000000" width="207.000000" height="66.000000" fill="orange"
					class=" stroke-B1" style="stroke-width:2;" />
			</g><text x="1252.500000" y="695.500000" class="text-mono-bold fill-N1"
				style="text-anchor:middle;font-size:16px">LEARN THE BASICS</text>
		</g>
		<g id="frontend.css_2">
			<g class="shape">
				<rect x="1149.000000" y="743.000000" width="207.000000" height="66.000000" fill="orange"
					class=" stroke-B1" style="stroke-width:2;" />
			</g><text x="1252.500000" y="781.500000" class="text-mono-bold fill-N1"
				style="text-anchor:middle;font-size:16px">MAKING LAYOUTS</text>
		</g>
		<g id="frontend.css_3">
			<g class="shape">
				<rect x="1149.000000" y="829.000000" width="207.000000" height="66.000000" fill="orange"
					class=" stroke-B1" style="stroke-width:2;" />
			</g><text x="1252.500000" y="867.500000" class="text-mono-bold fill-N1"
				style="text-anchor:middle;font-size:16px">RESPONSIVE DESIGN</text>
		</g>
		<g id="frontend.js">
			<g class="shape">
				<rect x="940.000000" y="1112.000000" width="142.000000" height="120.000000" class=" stroke-B1 fill-B5"
					style="stroke-width:2;" />
			</g><text x="1011.000000" y="1177.500000" class="text-mono-bold fill-N1"
				style="text-anchor:middle;font-size:16px">JAVASCRIPT</text>
		</g>
		<g id="frontend.js_1">
			<g class="shape">
				<rect x="544.000000" y="1053.000000" width="255.000000" height="66.000000" fill="orange"
					class=" stroke-B1" style="stroke-width:2;" />
			</g><text x="671.500000" y="1091.500000" class="text-mono-bold fill-N1"
				style="text-anchor:middle;font-size:16px">LEARN THE BASICS</text>
		</g>
		<g id="frontend.js_2">
			<g class="shape">
				<rect x="544.000000" y="1139.000000" width="255.000000" height="66.000000" fill="orange"
					class=" stroke-B1" style="stroke-width:2;" />
			</g><text x="671.500000" y="1177.500000" class="text-mono-bold fill-N1"
				style="text-anchor:middle;font-size:16px">LEARN DOM MANIPULATION</text>
		</g>
		<g id="frontend.js_3">
			<g class="shape">
				<rect x="544.000000" y="1225.000000" width="255.000000" height="66.000000" fill="orange"
					class=" stroke-B1" style="stroke-width:2;" />
			</g><text x="671.500000" y="1263.500000" class="text-mono-bold fill-N1"
				style="text-anchor:middle;font-size:16px">FETCH API/ AJAX (XHR)</text>
		</g>
		<g id="frontend.vcshosting">
			<g class="shape">
				<rect x="936.000000" y="1310.000000" width="150.000000" height="66.000000" class=" stroke-B1 fill-B5"
					style="stroke-width:2;" />
			</g><text x="1011.000000" y="1348.500000" class="text-mono-bold fill-N1"
				style="text-anchor:middle;font-size:16px">VCS HOSTING</text>
		</g>
		<g id="frontend.vcs">
			<g class="shape">
				<rect x="878.000000" y="1508.000000" width="266.000000" height="66.000000" class=" stroke-B1 fill-B5"
					style="stroke-width:2;" />
			</g><text x="1011.000000" y="1546.500000" class="text-mono-bold fill-N1"
				style="text-anchor:middle;font-size:16px">VERSION CONTROL SYSTEMS</text>
		</g>
		<g id="frontend.vcs_1">
			<g class="shape">
				<rect x="973.000000" y="1706.000000" width="75.000000" height="66.000000" fill="orange"
					class=" stroke-B1" style="stroke-width:2;" />
			</g><text x="1010.500000" y="1744.500000" class="text-mono-bold fill-N1"
				style="text-anchor:middle;font-size:16px">GIT</text>
		</g>
		<g id="frontend.(internet -- internet_1)[0]">
			<path
				d="M 454.000000 506.000000 L 425.000000 506.000000 S 425.000000 506.000000 425.000000 506.000000 L 425.000000 291.000000 S 425.000000 291.000000 425.000000 291.000000 L 396.000000 291.000000"
				fill="none" class="connection stroke-B2" style="stroke-width:2;stroke-dasharray:6.000000,5.919384;"
				mask="url(#d2-3861335636)" />
		</g>
		<g id="frontend.(internet -- internet_2)[0]">
			<path
				d="M 454.000000 506.000000 L 425.000000 506.000000 S 425.000000 506.000000 425.000000 506.000000 L 425.000000 377.000000 S 425.000000 377.000000 425.000000 377.000000 L 396.000000 377.000000"
				fill="none" class="connection stroke-B2" style="stroke-width:2;stroke-dasharray:6.000000,5.919384;"
				mask="url(#d2-3861335636)" />
		</g>
		<g id="frontend.(internet -- internet_3)[0]">
			<path
				d="M 454.000000 506.000000 L 425.000000 506.000000 S 425.000000 506.000000 425.000000 506.000000 L 425.000000 471.000000 S 425.000000 471.000000 425.000000 471.000000 L 396.000000 471.000000"
				fill="none" class="connection stroke-B2" style="stroke-width:2;stroke-dasharray:6.000000,5.919384;"
				mask="url(#d2-3861335636)" />
		</g>
		<g id="frontend.(internet -- internet_4)[0]">
			<path
				d="M 454.000000 506.000000 L 425.000000 506.000000 S 425.000000 506.000000 425.000000 506.000000 L 425.000000 541.000000 S 425.000000 541.000000 425.000000 541.000000 L 396.000000 541.000000"
				fill="none" class="connection stroke-B2" style="stroke-width:2;stroke-dasharray:6.000000,5.919384;"
				mask="url(#d2-3861335636)" />
		</g>
		<g id="frontend.(internet -- internet_5)[0]">
			<path
				d="M 454.000000 506.000000 L 425.000000 506.000000 S 425.000000 506.000000 425.000000 506.000000 L 425.000000 635.000000 S 425.000000 635.000000 425.000000 635.000000 L 396.000000 635.000000"
				fill="none" class="connection stroke-B2" style="stroke-width:2;stroke-dasharray:6.000000,5.919384;"
				mask="url(#d2-3861335636)" />
		</g>
		<g id="frontend.(internet -- internet_6)[0]">
			<path
				d="M 454.000000 506.000000 L 425.000000 506.000000 S 425.000000 506.000000 425.000000 506.000000 L 425.000000 735.000000 S 425.000000 735.000000 425.000000 735.000000 L 396.000000 735.000000"
				fill="none" class="connection stroke-B2" style="stroke-width:2;stroke-dasharray:6.000000,5.919384;"
				mask="url(#d2-3861335636)" />
		</g>
		<g id="frontend.(html -- html_1)[0]">
			<path
				d="M 581.000000 778.000000 L 616.000000 778.000000 S 616.000000 778.000000 616.000000 778.000000 L 616.000000 649.000000 S 616.000000 649.000000 616.000000 649.000000 L 652.000000 649.000000"
				fill="none" class="connection stroke-B2" style="stroke-width:2;stroke-dasharray:6.000000,5.919384;"
				mask="url(#d2-3861335636)" />
		</g>
		<g id="frontend.(html -- html_2)[0]">
			<path
				d="M 581.000000 778.000000 L 616.000000 778.000000 S 616.000000 778.000000 616.000000 778.000000 L 616.000000 742.000000 S 616.000000 742.000000 616.000000 742.000000 L 652.000000 742.000000"
				fill="none" class="connection stroke-B2" style="stroke-width:2;stroke-dasharray:6.000000,5.919384;"
				mask="url(#d2-3861335636)" />
		</g>
		<g id="frontend.(html -- html_3)[0]">
			<path
				d="M 581.000000 778.000000 L 616.000000 778.000000 S 616.000000 778.000000 616.000000 778.000000 L 616.000000 813.000000 S 616.000000 813.000000 616.000000 813.000000 L 652.000000 813.000000"
				fill="none" class="connection stroke-B2" style="stroke-width:2;stroke-dasharray:6.000000,5.919384;"
				mask="url(#d2-3861335636)" />
		</g>
		<g id="frontend.(html -- html_4)[0]">
			<path
				d="M 581.000000 778.000000 L 616.000000 778.000000 S 616.000000 778.000000 616.000000 778.000000 L 616.000000 907.000000 S 616.000000 907.000000 616.000000 907.000000 L 652.000000 907.000000"
				fill="none" class="connection stroke-B2" style="stroke-width:2;stroke-dasharray:6.000000,5.919384;"
				mask="url(#d2-3861335636)" />
		</g>
		<g id="frontend.(css -- css_1)[0]">
			<path
				d="M 1073.000000 776.000000 L 1110.000000 776.000000 S 1110.000000 776.000000 1110.000000 776.000000 L 1110.000000 686.000000 S 1110.000000 686.000000 1110.000000 686.000000 L 1147.000000 686.000000"
				fill="none" class="connection stroke-B2" style="stroke-width:2;stroke-dasharray:6.000000,5.919384;"
				mask="url(#d2-3861335636)" />
		</g>
		<g id="frontend.(css -- css_2)[0]">
			<path d="M 1073.000000 776.000000 L 1147.000000 776.000000" fill="none" class="connection stroke-B2"
				style="stroke-width:2;stroke-dasharray:6.000000,5.919384;" mask="url(#d2-3861335636)" />
		</g>
		<g id="frontend.(css -- css_3)[0]">
			<path
				d="M 1073.000000 776.000000 L 1110.000000 776.000000 S 1110.000000 776.000000 1110.000000 776.000000 L 1110.000000 865.000000 S 1110.000000 865.000000 1110.000000 865.000000 L 1147.000000 865.000000"
				fill="none" class="connection stroke-B2" style="stroke-width:2;stroke-dasharray:6.000000,5.919384;"
				mask="url(#d2-3861335636)" />
		</g>
		<g id="frontend.(js -- js_1)[0]">
			<path
				d="M 938.000000 1172.000000 L 869.000000 1172.000000 S 869.000000 1172.000000 869.000000 1172.000000 L 869.000000 1086.000000 S 869.000000 1086.000000 869.000000 1086.000000 L 801.000000 1086.000000"
				fill="none" class="connection stroke-B2" style="stroke-width:2;stroke-dasharray:6.000000,5.919384;"
				mask="url(#d2-3861335636)" />
		</g>
		<g id="frontend.(js -- js_2)[0]">
			<path d="M 938.000000 1172.000000 L 801.000000 1172.000000" fill="none" class="connection stroke-B2"
				style="stroke-width:2;stroke-dasharray:6.000000,5.919384;" mask="url(#d2-3861335636)" />
		</g>
		<g id="frontend.(js -- js_3)[0]">
			<path
				d="M 938.000000 1172.000000 L 869.000000 1172.000000 S 869.000000 1172.000000 869.000000 1172.000000 L 869.000000 1258.000000 S 869.000000 1258.000000 869.000000 1258.000000 L 801.000000 1258.000000"
				fill="none" class="connection stroke-B2" style="stroke-width:2;stroke-dasharray:6.000000,5.919384;"
				mask="url(#d2-3861335636)" />
		</g>
		<g id="frontend.(vcs -- vcs_1)[0]">
			<path d="M 1010.000000 1576.000000 L 1010.000000 1704.000000" fill="none" class="connection stroke-B2"
				style="stroke-width:2;stroke-dasharray:6.000000,5.919384;" mask="url(#d2-3861335636)" />
		</g>
		<g id="frontend.(internet -&gt; html)[0]">
			<marker id="mk-3488378134" markerWidth="10.000000" markerHeight="12.000000" refX="7.000000" refY="6.000000"
				viewBox="0.000000 0.000000 10.000000 12.000000" orient="auto" markerUnits="userSpaceOnUse">
				<polygon points="0.000000,0.000000 10.000000,6.000000 0.000000,12.000000" class="connection fill-B1"
					stroke-width="2" />
			</marker>
			<path d="M 517.000000 568.000000 L 517.000000 712.000000" fill="none" class="connection stroke-B1"
				style="stroke-width:2;" marker-end="url(#mk-3488378134)" mask="url(#d2-3861335636)" />
		</g>
		<g id="frontend.(html -&gt; css)[0]">
			<path
				d="M 548.000000 714.000000 L 548.000000 591.000000 S 548.000000 591.000000 548.000000 591.000000 L 1011.000000 591.000000 S 1011.000000 591.000000 1011.000000 591.000000 L 1011.000000 712.000000"
				fill="none" class="connection stroke-B1" style="stroke-width:2;" marker-end="url(#mk-3488378134)"
				mask="url(#d2-3861335636)" />
		</g>
		<g id="frontend.(css -&gt; js)[0]">
			<path d="M 1011.000000 838.000000 L 1011.000000 1108.000000" fill="none" class="connection stroke-B1"
				style="stroke-width:2;" marker-end="url(#mk-3488378134)" mask="url(#d2-3861335636)" />
		</g>
		<g id="frontend.(js -&gt; vcshosting)[0]">
			<path d="M 1011.000000 1234.000000 L 1011.000000 1306.000000" fill="none" class="connection stroke-B1"
				style="stroke-width:2;" marker-end="url(#mk-3488378134)" mask="url(#d2-3861335636)" />
		</g>
		<g id="frontend.(vcshosting -&gt; vcs)[0]">
			<path d="M 1011.000000 1378.000000 L 1011.000000 1504.000000" fill="none" class="connection stroke-B1"
				style="stroke-width:2;" marker-end="url(#mk-3488378134)" mask="url(#d2-3861335636)" />
		</g>
		<g id="(start -&gt; frontend.internet)[0]">
			<path d="M 517.000000 68.000000 L 517.000000 442.000000" fill="none" class="connection stroke-B1"
				style="stroke-width:2;" marker-end="url(#mk-3488378134)" mask="url(#d2-3861335636)" />
		</g>
		<g id="(frontend.vcs -&gt; end)[0]">
			<path d="M 922.000000 1576.000000 L 922.000000 1949.000000" fill="none" class="connection stroke-B1"
				style="stroke-width:2;" marker-end="url(#mk-3488378134)" mask="url(#d2-3861335636)" />
		</g>
		<g transform="translate(378 242)" class="appendix-icon"><svg width="32" height="32" viewBox="0 0 32 32"
				fill="none" xmlns="http://www.w3.org/2000/svg">
				<g clip-path="url(#clip0_3440_35088111)">
					<path
						d="M16 31.1109C24.3456 31.1109 31.1111 24.3454 31.1111 15.9998C31.1111 7.65415 24.3456 0.888672 16 0.888672C7.65436 0.888672 0.888885 7.65415 0.888885 15.9998C0.888885 24.3454 7.65436 31.1109 16 31.1109Z"
						fill="white" stroke="#DEE1EB" />
					<path
						d="M14.3909 16.7965C14.7364 17.2584 15.1772 17.6406 15.6834 17.9171C16.1896 18.1938 16.7494 18.3582 17.3248 18.3993C17.9001 18.4405 18.4777 18.3575 19.0181 18.1559C19.5586 17.9543 20.0492 17.6389 20.4571 17.2309L22.8708 14.8173C23.6036 14.0586 24.0089 13.0425 23.9998 11.9877C23.9906 10.933 23.5676 9.92404 22.8217 9.17821C22.0759 8.43237 21.067 8.00931 20.0123 8.00015C18.9575 7.99098 17.9413 8.39644 17.1827 9.1292L15.7988 10.505"
						stroke="#2E3346" stroke-width="2" stroke-linecap="round" stroke-linejoin="round" />
					<path
						d="M17.609 15.1874C17.2635 14.7255 16.8227 14.3433 16.3165 14.0667C15.8103 13.7902 15.2505 13.6257 14.6752 13.5845C14.0998 13.5433 13.5223 13.6263 12.9819 13.8279C12.4414 14.0295 11.9506 14.345 11.5428 14.753L9.1292 17.1666C8.39644 17.9252 7.99098 18.9414 8.00015 19.9962C8.00931 21.0509 8.43237 22.0598 9.17821 22.8056C9.92405 23.5515 10.933 23.9745 11.9877 23.9837C13.0425 23.9928 14.0586 23.5875 14.8173 22.8547L16.193 21.4788"
						stroke="#2E3346" stroke-width="2" stroke-linecap="round" stroke-linejoin="round" />
				</g>
				<defs>
					<clipPath id="clip0_3440_35088111">
						<rect width="32" height="32" fill="white" />
					</clipPath>
				</defs>
			</svg>
		</g>
		<mask id="d2-3861335636" maskUnits="userSpaceOnUse" x="-101" y="-101" width="1618" height="2221">
			<rect x="-101" y="-101" width="1618" height="2221" fill="white"></rect>
			<rect x="642.500000" y="203.000000" width="131" height="36" fill="rgba(0,0,0,0.75)"></rect>
			<rect x="454.500000" y="22.500000" width="125" height="21" fill="rgba(0,0,0,0.75)"></rect>
			<rect x="840.500000" y="1975.500000" width="104" height="21" fill="rgba(0,0,0,0.75)"></rect>
			<rect x="478.500000" y="495.500000" width="77" height="21" fill="rgba(0,0,0,0.75)"></rect>
			<rect x="98.500000" y="280.500000" width="257" height="21" fill="rgba(0,0,0,0.75)"></rect>
			<rect x="165.000000" y="366.500000" width="124" height="21" fill="rgba(0,0,0,0.75)"></rect>
			<rect x="131.500000" y="452.500000" width="191" height="21" fill="rgba(0,0,0,0.75)"></rect>
			<rect x="151.000000" y="538.500000" width="152" height="21" fill="rgba(0,0,0,0.75)"></rect>
			<rect x="127.500000" y="624.500000" width="199" height="21" fill="rgba(0,0,0,0.75)"></rect>
			<rect x="103.500000" y="710.500000" width="247" height="21" fill="rgba(0,0,0,0.75)"></rect>
			<rect x="489.500000" y="761.500000" width="56" height="32" fill="rgba(0,0,0,0.75)"></rect>
			<rect x="701.000000" y="638.500000" width="152" height="21" fill="rgba(0,0,0,0.75)"></rect>
			<rect x="676.500000" y="724.500000" width="201" height="21" fill="rgba(0,0,0,0.75)"></rect>
			<rect x="714.000000" y="810.500000" width="126" height="21" fill="rgba(0,0,0,0.75)"></rect>
			<rect x="729.000000" y="896.500000" width="96" height="21" fill="rgba(0,0,0,0.75)"></rect>
			<rect x="989.000000" y="760.000000" width="44" height="32" fill="rgba(0,0,0,0.75)"></rect>
			<rect x="1176.500000" y="679.500000" width="152" height="21" fill="rgba(0,0,0,0.75)"></rect>
			<rect x="1185.500000" y="765.500000" width="134" height="21" fill="rgba(0,0,0,0.75)"></rect>
			<rect x="1171.500000" y="851.500000" width="162" height="21" fill="rgba(0,0,0,0.75)"></rect>
			<rect x="962.500000" y="1161.500000" width="97" height="21" fill="rgba(0,0,0,0.75)"></rect>
			<rect x="595.500000" y="1075.500000" width="152" height="21" fill="rgba(0,0,0,0.75)"></rect>
			<rect x="566.500000" y="1161.500000" width="210" height="21" fill="rgba(0,0,0,0.75)"></rect>
			<rect x="572.500000" y="1247.500000" width="198" height="21" fill="rgba(0,0,0,0.75)"></rect>
			<rect x="958.500000" y="1332.500000" width="105" height="21" fill="rgba(0,0,0,0.75)"></rect>
			<rect x="900.500000" y="1530.500000" width="221" height="21" fill="rgba(0,0,0,0.75)"></rect>
			<rect x="995.500000" y="1728.500000" width="30" height="21" fill="rgba(0,0,0,0.75)"></rect>
		</mask>
	</svg></svg>